%TF.GenerationSoftware,KiCad,Pcbnew,9.0.3+dfsg-1*%
%TF.CreationDate,2026-02-22T15:02:18-05:00*%
%TF.ProjectId,bench-power,62656e63-682d-4706-9f77-65722e6b6963,rev?*%
%TF.SameCoordinates,Original*%
%TF.FileFunction,Soldermask,Top*%
%TF.FilePolarity,Negative*%
%FSLAX46Y46*%
G04 Gerber Fmt 4.6, Leading zero omitted, Abs format (unit mm)*
G04 Created by KiCad (PCBNEW 9.0.3+dfsg-1) date 2026-02-22 15:02:18*
%MOMM*%
%LPD*%
G01*
G04 APERTURE LIST*
G04 Aperture macros list*
%AMRoundRect*
0 Rectangle with rounded corners*
0 $1 Rounding radius*
0 $2 $3 $4 $5 $6 $7 $8 $9 X,Y pos of 4 corners*
0 Add a 4 corners polygon primitive as box body*
4,1,4,$2,$3,$4,$5,$6,$7,$8,$9,$2,$3,0*
0 Add four circle primitives for the rounded corners*
1,1,$1+$1,$2,$3*
1,1,$1+$1,$4,$5*
1,1,$1+$1,$6,$7*
1,1,$1+$1,$8,$9*
0 Add four rect primitives between the rounded corners*
20,1,$1+$1,$2,$3,$4,$5,0*
20,1,$1+$1,$4,$5,$6,$7,0*
20,1,$1+$1,$6,$7,$8,$9,0*
20,1,$1+$1,$8,$9,$2,$3,0*%
G04 Aperture macros list end*
%ADD10C,2.000000*%
%ADD11C,1.600000*%
%ADD12C,1.400000*%
%ADD13RoundRect,0.250000X0.750000X0.750000X-0.750000X0.750000X-0.750000X-0.750000X0.750000X-0.750000X0*%
%ADD14RoundRect,0.250000X-0.600000X-0.725000X0.600000X-0.725000X0.600000X0.725000X-0.600000X0.725000X0*%
%ADD15O,1.700000X1.950000*%
%ADD16RoundRect,0.250000X-0.750000X-0.750000X0.750000X-0.750000X0.750000X0.750000X-0.750000X0.750000X0*%
%ADD17R,1.800000X1.800000*%
%ADD18C,1.800000*%
%ADD19C,2.454000*%
G04 APERTURE END LIST*
D10*
%TO.C,REF\u002A\u002A*%
X143000000Y-121000000D03*
%TD*%
D11*
%TO.C,C2*%
X143443367Y-106018641D03*
X148443367Y-106018641D03*
%TD*%
D12*
%TO.C,R6*%
X167455790Y-85371938D03*
X172535790Y-85371938D03*
%TD*%
%TO.C,R4*%
X166499410Y-112738751D03*
X171579410Y-112738751D03*
%TD*%
D10*
%TO.C,REF\u002A\u002A*%
X176000000Y-51000000D03*
%TD*%
D13*
%TO.C,C4*%
X157709104Y-104858699D03*
D10*
X152709104Y-104858699D03*
%TD*%
D14*
%TO.C,J1*%
X148409529Y-118328189D03*
D15*
X150909529Y-118328189D03*
X153409529Y-118328189D03*
X155909529Y-118328189D03*
%TD*%
D16*
%TO.C,C7*%
X166632323Y-98200085D03*
D10*
X171632323Y-98200085D03*
%TD*%
D11*
%TO.C,C9*%
X169079410Y-110107884D03*
X171579410Y-110107884D03*
%TD*%
D12*
%TO.C,R5*%
X155879788Y-86875059D03*
X155879788Y-91955059D03*
%TD*%
D11*
%TO.C,FB4*%
X175798913Y-90580085D03*
X175798913Y-98200085D03*
%TD*%
D12*
%TO.C,R2*%
X143363367Y-112732182D03*
X148443367Y-112732182D03*
%TD*%
D13*
%TO.C,C1*%
X148443367Y-98190216D03*
D10*
X143443367Y-98190216D03*
%TD*%
D17*
%TO.C,D1*%
X147300680Y-89708898D03*
D18*
X144760680Y-89708898D03*
%TD*%
D11*
%TO.C,C3*%
X145943367Y-110104700D03*
X148443367Y-110104700D03*
%TD*%
D19*
%TO.C,F2*%
X159500000Y-58700000D03*
X159500000Y-81300000D03*
%TD*%
%TO.C,F3*%
X171500000Y-58700000D03*
X171500000Y-81300000D03*
%TD*%
D11*
%TO.C,C5*%
X152728019Y-112700747D03*
X157728019Y-112700747D03*
%TD*%
D10*
%TO.C,REF\u002A\u002A*%
X176000000Y-121000000D03*
%TD*%
D11*
%TO.C,FB2*%
X152635490Y-90513258D03*
X152635490Y-98133258D03*
%TD*%
D19*
%TO.C,F1*%
X147500000Y-58700000D03*
X147500000Y-81300000D03*
%TD*%
D12*
%TO.C,R1*%
X148267689Y-85337534D03*
X143187689Y-85337534D03*
%TD*%
D14*
%TO.C,J2*%
X154500000Y-53000000D03*
D15*
X157000000Y-53000000D03*
X159500000Y-53000000D03*
X162000000Y-53000000D03*
X164500000Y-53000000D03*
%TD*%
D17*
%TO.C,D2*%
X158522440Y-96255840D03*
D18*
X155982440Y-96255840D03*
%TD*%
D11*
%TO.C,C6*%
X160666148Y-115200747D03*
X160666148Y-112700747D03*
%TD*%
D12*
%TO.C,R3*%
X163332773Y-117780747D03*
X163332773Y-112700747D03*
%TD*%
D17*
%TO.C,D3*%
X172005984Y-89695378D03*
D18*
X169465984Y-89695378D03*
%TD*%
D11*
%TO.C,FB3*%
X161934694Y-97239452D03*
X161934694Y-104859452D03*
%TD*%
D10*
%TO.C,REF\u002A\u002A*%
X143000000Y-51000000D03*
%TD*%
D11*
%TO.C,C8*%
X166579410Y-106036280D03*
X171579410Y-106036280D03*
%TD*%
M02*
