M48
; DRILL file {KiCad 9.0.3+dfsg-1} date 2026-02-22T16:32:25-0500
; FORMAT={-:-/ absolute / metric / decimal}
; #@! TF.CreationDate,2026-02-22T16:32:25-05:00
; #@! TF.GenerationSoftware,Kicad,Pcbnew,9.0.3+dfsg-1
; #@! TF.FileFunction,Plated,1,2,PTH
FMAT,2
METRIC
; #@! TA.AperFunction,Plated,PTH,ComponentDrill
T1C0.700
; #@! TA.AperFunction,Plated,PTH,ComponentDrill
T2C0.800
; #@! TA.AperFunction,Plated,PTH,ComponentDrill
T3C0.900
; #@! TA.AperFunction,Plated,PTH,ComponentDrill
T4C0.950
; #@! TA.AperFunction,Plated,PTH,ComponentDrill
T5C1.000
; #@! TA.AperFunction,Plated,PTH,ComponentDrill
T6C1.500
%
G90
G05
T1
X143.188Y-85.338
X143.363Y-112.732
X148.268Y-85.338
X148.443Y-112.732
X155.88Y-86.875
X155.88Y-91.955
X163.333Y-112.701
X163.333Y-117.781
X166.499Y-112.739
X167.456Y-85.372
X171.579Y-112.739
X172.536Y-85.372
T2
X143.443Y-106.019
X145.943Y-110.105
X148.443Y-106.019
X148.443Y-110.105
X152.635Y-90.513
X152.635Y-98.133
X152.728Y-112.701
X157.728Y-112.701
X160.666Y-112.701
X160.666Y-115.201
X161.935Y-97.239
X161.935Y-104.859
X166.579Y-106.036
X169.079Y-110.108
X171.579Y-106.036
X171.579Y-110.108
X175.799Y-90.58
X175.799Y-98.2
T3
X144.761Y-89.709
X147.301Y-89.709
X155.982Y-96.256
X158.522Y-96.256
X169.466Y-89.695
X172.006Y-89.695
T4
X148.41Y-118.328
X150.91Y-118.328
X153.41Y-118.328
X154.5Y-53.0
X155.91Y-118.328
X157.0Y-53.0
X159.5Y-53.0
X162.0Y-53.0
X164.5Y-53.0
T5
X143.443Y-98.19
X148.443Y-98.19
X152.709Y-104.859
X157.709Y-104.859
X166.632Y-98.2
X171.632Y-98.2
T6
X147.5Y-58.7
X147.5Y-81.3
X159.5Y-58.7
X159.5Y-81.3
X171.5Y-58.7
X171.5Y-81.3
M30
