%TF.GenerationSoftware,KiCad,Pcbnew,9.0.3+dfsg-1*%
%TF.CreationDate,2026-02-22T16:32:14-05:00*%
%TF.ProjectId,bench-power,62656e63-682d-4706-9f77-65722e6b6963,rev?*%
%TF.SameCoordinates,Original*%
%TF.FileFunction,Legend,Top*%
%TF.FilePolarity,Positive*%
%FSLAX46Y46*%
G04 Gerber Fmt 4.6, Leading zero omitted, Abs format (unit mm)*
G04 Created by KiCad (PCBNEW 9.0.3+dfsg-1) date 2026-02-22 16:32:14*
%MOMM*%
%LPD*%
G01*
G04 APERTURE LIST*
G04 Aperture macros list*
%AMRoundRect*
0 Rectangle with rounded corners*
0 $1 Rounding radius*
0 $2 $3 $4 $5 $6 $7 $8 $9 X,Y pos of 4 corners*
0 Add a 4 corners polygon primitive as box body*
4,1,4,$2,$3,$4,$5,$6,$7,$8,$9,$2,$3,0*
0 Add four circle primitives for the rounded corners*
1,1,$1+$1,$2,$3*
1,1,$1+$1,$4,$5*
1,1,$1+$1,$6,$7*
1,1,$1+$1,$8,$9*
0 Add four rect primitives between the rounded corners*
20,1,$1+$1,$2,$3,$4,$5,0*
20,1,$1+$1,$4,$5,$6,$7,0*
20,1,$1+$1,$6,$7,$8,$9,0*
20,1,$1+$1,$8,$9,$2,$3,0*%
G04 Aperture macros list end*
%ADD10C,0.150000*%
%ADD11C,0.120000*%
%ADD12C,0.200000*%
%ADD13C,2.000000*%
%ADD14C,1.600000*%
%ADD15C,1.400000*%
%ADD16RoundRect,0.250000X0.750000X0.750000X-0.750000X0.750000X-0.750000X-0.750000X0.750000X-0.750000X0*%
%ADD17RoundRect,0.250000X-0.600000X-0.725000X0.600000X-0.725000X0.600000X0.725000X-0.600000X0.725000X0*%
%ADD18O,1.700000X1.950000*%
%ADD19RoundRect,0.250000X-0.750000X-0.750000X0.750000X-0.750000X0.750000X0.750000X-0.750000X0.750000X0*%
%ADD20R,1.800000X1.800000*%
%ADD21C,1.800000*%
%ADD22C,2.454000*%
G04 APERTURE END LIST*
D10*
X141590164Y-109367649D02*
X141542545Y-109415269D01*
X141542545Y-109415269D02*
X141399688Y-109462888D01*
X141399688Y-109462888D02*
X141304450Y-109462888D01*
X141304450Y-109462888D02*
X141161593Y-109415269D01*
X141161593Y-109415269D02*
X141066355Y-109320030D01*
X141066355Y-109320030D02*
X141018736Y-109224792D01*
X141018736Y-109224792D02*
X140971117Y-109034316D01*
X140971117Y-109034316D02*
X140971117Y-108891459D01*
X140971117Y-108891459D02*
X141018736Y-108700983D01*
X141018736Y-108700983D02*
X141066355Y-108605745D01*
X141066355Y-108605745D02*
X141161593Y-108510507D01*
X141161593Y-108510507D02*
X141304450Y-108462888D01*
X141304450Y-108462888D02*
X141399688Y-108462888D01*
X141399688Y-108462888D02*
X141542545Y-108510507D01*
X141542545Y-108510507D02*
X141590164Y-108558126D01*
X141971117Y-108558126D02*
X142018736Y-108510507D01*
X142018736Y-108510507D02*
X142113974Y-108462888D01*
X142113974Y-108462888D02*
X142352069Y-108462888D01*
X142352069Y-108462888D02*
X142447307Y-108510507D01*
X142447307Y-108510507D02*
X142494926Y-108558126D01*
X142494926Y-108558126D02*
X142542545Y-108653364D01*
X142542545Y-108653364D02*
X142542545Y-108748602D01*
X142542545Y-108748602D02*
X142494926Y-108891459D01*
X142494926Y-108891459D02*
X141923498Y-109462888D01*
X141923498Y-109462888D02*
X142542545Y-109462888D01*
X169842110Y-84029503D02*
X169508777Y-83553312D01*
X169270682Y-84029503D02*
X169270682Y-83029503D01*
X169270682Y-83029503D02*
X169651634Y-83029503D01*
X169651634Y-83029503D02*
X169746872Y-83077122D01*
X169746872Y-83077122D02*
X169794491Y-83124741D01*
X169794491Y-83124741D02*
X169842110Y-83219979D01*
X169842110Y-83219979D02*
X169842110Y-83362836D01*
X169842110Y-83362836D02*
X169794491Y-83458074D01*
X169794491Y-83458074D02*
X169746872Y-83505693D01*
X169746872Y-83505693D02*
X169651634Y-83553312D01*
X169651634Y-83553312D02*
X169270682Y-83553312D01*
X170699253Y-83029503D02*
X170508777Y-83029503D01*
X170508777Y-83029503D02*
X170413539Y-83077122D01*
X170413539Y-83077122D02*
X170365920Y-83124741D01*
X170365920Y-83124741D02*
X170270682Y-83267598D01*
X170270682Y-83267598D02*
X170223063Y-83458074D01*
X170223063Y-83458074D02*
X170223063Y-83839026D01*
X170223063Y-83839026D02*
X170270682Y-83934264D01*
X170270682Y-83934264D02*
X170318301Y-83981884D01*
X170318301Y-83981884D02*
X170413539Y-84029503D01*
X170413539Y-84029503D02*
X170604015Y-84029503D01*
X170604015Y-84029503D02*
X170699253Y-83981884D01*
X170699253Y-83981884D02*
X170746872Y-83934264D01*
X170746872Y-83934264D02*
X170794491Y-83839026D01*
X170794491Y-83839026D02*
X170794491Y-83600931D01*
X170794491Y-83600931D02*
X170746872Y-83505693D01*
X170746872Y-83505693D02*
X170699253Y-83458074D01*
X170699253Y-83458074D02*
X170604015Y-83410455D01*
X170604015Y-83410455D02*
X170413539Y-83410455D01*
X170413539Y-83410455D02*
X170318301Y-83458074D01*
X170318301Y-83458074D02*
X170270682Y-83505693D01*
X170270682Y-83505693D02*
X170223063Y-83600931D01*
X174188351Y-113193570D02*
X173855018Y-112717379D01*
X173616923Y-113193570D02*
X173616923Y-112193570D01*
X173616923Y-112193570D02*
X173997875Y-112193570D01*
X173997875Y-112193570D02*
X174093113Y-112241189D01*
X174093113Y-112241189D02*
X174140732Y-112288808D01*
X174140732Y-112288808D02*
X174188351Y-112384046D01*
X174188351Y-112384046D02*
X174188351Y-112526903D01*
X174188351Y-112526903D02*
X174140732Y-112622141D01*
X174140732Y-112622141D02*
X174093113Y-112669760D01*
X174093113Y-112669760D02*
X173997875Y-112717379D01*
X173997875Y-112717379D02*
X173616923Y-112717379D01*
X175045494Y-112526903D02*
X175045494Y-113193570D01*
X174807399Y-112145951D02*
X174569304Y-112860236D01*
X174569304Y-112860236D02*
X175188351Y-112860236D01*
X159203461Y-109543738D02*
X159155842Y-109591358D01*
X159155842Y-109591358D02*
X159012985Y-109638977D01*
X159012985Y-109638977D02*
X158917747Y-109638977D01*
X158917747Y-109638977D02*
X158774890Y-109591358D01*
X158774890Y-109591358D02*
X158679652Y-109496119D01*
X158679652Y-109496119D02*
X158632033Y-109400881D01*
X158632033Y-109400881D02*
X158584414Y-109210405D01*
X158584414Y-109210405D02*
X158584414Y-109067548D01*
X158584414Y-109067548D02*
X158632033Y-108877072D01*
X158632033Y-108877072D02*
X158679652Y-108781834D01*
X158679652Y-108781834D02*
X158774890Y-108686596D01*
X158774890Y-108686596D02*
X158917747Y-108638977D01*
X158917747Y-108638977D02*
X159012985Y-108638977D01*
X159012985Y-108638977D02*
X159155842Y-108686596D01*
X159155842Y-108686596D02*
X159203461Y-108734215D01*
X160060604Y-108972310D02*
X160060604Y-109638977D01*
X159822509Y-108591358D02*
X159584414Y-109305643D01*
X159584414Y-109305643D02*
X160203461Y-109305643D01*
X144138438Y-116169880D02*
X144138438Y-116884165D01*
X144138438Y-116884165D02*
X144090819Y-117027022D01*
X144090819Y-117027022D02*
X143995581Y-117122261D01*
X143995581Y-117122261D02*
X143852724Y-117169880D01*
X143852724Y-117169880D02*
X143757486Y-117169880D01*
X145138438Y-117169880D02*
X144567010Y-117169880D01*
X144852724Y-117169880D02*
X144852724Y-116169880D01*
X144852724Y-116169880D02*
X144757486Y-116312737D01*
X144757486Y-116312737D02*
X144662248Y-116407975D01*
X144662248Y-116407975D02*
X144567010Y-116455594D01*
X173833333Y-102718949D02*
X173785714Y-102766569D01*
X173785714Y-102766569D02*
X173642857Y-102814188D01*
X173642857Y-102814188D02*
X173547619Y-102814188D01*
X173547619Y-102814188D02*
X173404762Y-102766569D01*
X173404762Y-102766569D02*
X173309524Y-102671330D01*
X173309524Y-102671330D02*
X173261905Y-102576092D01*
X173261905Y-102576092D02*
X173214286Y-102385616D01*
X173214286Y-102385616D02*
X173214286Y-102242759D01*
X173214286Y-102242759D02*
X173261905Y-102052283D01*
X173261905Y-102052283D02*
X173309524Y-101957045D01*
X173309524Y-101957045D02*
X173404762Y-101861807D01*
X173404762Y-101861807D02*
X173547619Y-101814188D01*
X173547619Y-101814188D02*
X173642857Y-101814188D01*
X173642857Y-101814188D02*
X173785714Y-101861807D01*
X173785714Y-101861807D02*
X173833333Y-101909426D01*
X174166667Y-101814188D02*
X174833333Y-101814188D01*
X174833333Y-101814188D02*
X174404762Y-102814188D01*
X174199759Y-110447371D02*
X174152140Y-110494991D01*
X174152140Y-110494991D02*
X174009283Y-110542610D01*
X174009283Y-110542610D02*
X173914045Y-110542610D01*
X173914045Y-110542610D02*
X173771188Y-110494991D01*
X173771188Y-110494991D02*
X173675950Y-110399752D01*
X173675950Y-110399752D02*
X173628331Y-110304514D01*
X173628331Y-110304514D02*
X173580712Y-110114038D01*
X173580712Y-110114038D02*
X173580712Y-109971181D01*
X173580712Y-109971181D02*
X173628331Y-109780705D01*
X173628331Y-109780705D02*
X173675950Y-109685467D01*
X173675950Y-109685467D02*
X173771188Y-109590229D01*
X173771188Y-109590229D02*
X173914045Y-109542610D01*
X173914045Y-109542610D02*
X174009283Y-109542610D01*
X174009283Y-109542610D02*
X174152140Y-109590229D01*
X174152140Y-109590229D02*
X174199759Y-109637848D01*
X174675950Y-110542610D02*
X174866426Y-110542610D01*
X174866426Y-110542610D02*
X174961664Y-110494991D01*
X174961664Y-110494991D02*
X175009283Y-110447371D01*
X175009283Y-110447371D02*
X175104521Y-110304514D01*
X175104521Y-110304514D02*
X175152140Y-110114038D01*
X175152140Y-110114038D02*
X175152140Y-109733086D01*
X175152140Y-109733086D02*
X175104521Y-109637848D01*
X175104521Y-109637848D02*
X175056902Y-109590229D01*
X175056902Y-109590229D02*
X174961664Y-109542610D01*
X174961664Y-109542610D02*
X174771188Y-109542610D01*
X174771188Y-109542610D02*
X174675950Y-109590229D01*
X174675950Y-109590229D02*
X174628331Y-109637848D01*
X174628331Y-109637848D02*
X174580712Y-109733086D01*
X174580712Y-109733086D02*
X174580712Y-109971181D01*
X174580712Y-109971181D02*
X174628331Y-110066419D01*
X174628331Y-110066419D02*
X174675950Y-110114038D01*
X174675950Y-110114038D02*
X174771188Y-110161657D01*
X174771188Y-110161657D02*
X174961664Y-110161657D01*
X174961664Y-110161657D02*
X175056902Y-110114038D01*
X175056902Y-110114038D02*
X175104521Y-110066419D01*
X175104521Y-110066419D02*
X175152140Y-109971181D01*
X154689099Y-89306933D02*
X154212908Y-89640266D01*
X154689099Y-89878361D02*
X153689099Y-89878361D01*
X153689099Y-89878361D02*
X153689099Y-89497409D01*
X153689099Y-89497409D02*
X153736718Y-89402171D01*
X153736718Y-89402171D02*
X153784337Y-89354552D01*
X153784337Y-89354552D02*
X153879575Y-89306933D01*
X153879575Y-89306933D02*
X154022432Y-89306933D01*
X154022432Y-89306933D02*
X154117670Y-89354552D01*
X154117670Y-89354552D02*
X154165289Y-89402171D01*
X154165289Y-89402171D02*
X154212908Y-89497409D01*
X154212908Y-89497409D02*
X154212908Y-89878361D01*
X153689099Y-88402171D02*
X153689099Y-88878361D01*
X153689099Y-88878361D02*
X154165289Y-88925980D01*
X154165289Y-88925980D02*
X154117670Y-88878361D01*
X154117670Y-88878361D02*
X154070051Y-88783123D01*
X154070051Y-88783123D02*
X154070051Y-88545028D01*
X154070051Y-88545028D02*
X154117670Y-88449790D01*
X154117670Y-88449790D02*
X154165289Y-88402171D01*
X154165289Y-88402171D02*
X154260527Y-88354552D01*
X154260527Y-88354552D02*
X154498622Y-88354552D01*
X154498622Y-88354552D02*
X154593860Y-88402171D01*
X154593860Y-88402171D02*
X154641480Y-88449790D01*
X154641480Y-88449790D02*
X154689099Y-88545028D01*
X154689099Y-88545028D02*
X154689099Y-88783123D01*
X154689099Y-88783123D02*
X154641480Y-88878361D01*
X154641480Y-88878361D02*
X154593860Y-88925980D01*
X177779975Y-96117666D02*
X177779975Y-96450999D01*
X178303785Y-96450999D02*
X177303785Y-96450999D01*
X177303785Y-96450999D02*
X177303785Y-95974809D01*
X177779975Y-95260523D02*
X177827594Y-95117666D01*
X177827594Y-95117666D02*
X177875213Y-95070047D01*
X177875213Y-95070047D02*
X177970451Y-95022428D01*
X177970451Y-95022428D02*
X178113308Y-95022428D01*
X178113308Y-95022428D02*
X178208546Y-95070047D01*
X178208546Y-95070047D02*
X178256166Y-95117666D01*
X178256166Y-95117666D02*
X178303785Y-95212904D01*
X178303785Y-95212904D02*
X178303785Y-95593856D01*
X178303785Y-95593856D02*
X177303785Y-95593856D01*
X177303785Y-95593856D02*
X177303785Y-95260523D01*
X177303785Y-95260523D02*
X177351404Y-95165285D01*
X177351404Y-95165285D02*
X177399023Y-95117666D01*
X177399023Y-95117666D02*
X177494261Y-95070047D01*
X177494261Y-95070047D02*
X177589499Y-95070047D01*
X177589499Y-95070047D02*
X177684737Y-95117666D01*
X177684737Y-95117666D02*
X177732356Y-95165285D01*
X177732356Y-95165285D02*
X177779975Y-95260523D01*
X177779975Y-95260523D02*
X177779975Y-95593856D01*
X177637118Y-94165285D02*
X178303785Y-94165285D01*
X177256166Y-94403380D02*
X177970451Y-94641475D01*
X177970451Y-94641475D02*
X177970451Y-94022428D01*
X145757911Y-115113927D02*
X145424578Y-114637736D01*
X145186483Y-115113927D02*
X145186483Y-114113927D01*
X145186483Y-114113927D02*
X145567435Y-114113927D01*
X145567435Y-114113927D02*
X145662673Y-114161546D01*
X145662673Y-114161546D02*
X145710292Y-114209165D01*
X145710292Y-114209165D02*
X145757911Y-114304403D01*
X145757911Y-114304403D02*
X145757911Y-114447260D01*
X145757911Y-114447260D02*
X145710292Y-114542498D01*
X145710292Y-114542498D02*
X145662673Y-114590117D01*
X145662673Y-114590117D02*
X145567435Y-114637736D01*
X145567435Y-114637736D02*
X145186483Y-114637736D01*
X146138864Y-114209165D02*
X146186483Y-114161546D01*
X146186483Y-114161546D02*
X146281721Y-114113927D01*
X146281721Y-114113927D02*
X146519816Y-114113927D01*
X146519816Y-114113927D02*
X146615054Y-114161546D01*
X146615054Y-114161546D02*
X146662673Y-114209165D01*
X146662673Y-114209165D02*
X146710292Y-114304403D01*
X146710292Y-114304403D02*
X146710292Y-114399641D01*
X146710292Y-114399641D02*
X146662673Y-114542498D01*
X146662673Y-114542498D02*
X146091245Y-115113927D01*
X146091245Y-115113927D02*
X146710292Y-115113927D01*
X141632715Y-102799909D02*
X141585096Y-102847529D01*
X141585096Y-102847529D02*
X141442239Y-102895148D01*
X141442239Y-102895148D02*
X141347001Y-102895148D01*
X141347001Y-102895148D02*
X141204144Y-102847529D01*
X141204144Y-102847529D02*
X141108906Y-102752290D01*
X141108906Y-102752290D02*
X141061287Y-102657052D01*
X141061287Y-102657052D02*
X141013668Y-102466576D01*
X141013668Y-102466576D02*
X141013668Y-102323719D01*
X141013668Y-102323719D02*
X141061287Y-102133243D01*
X141061287Y-102133243D02*
X141108906Y-102038005D01*
X141108906Y-102038005D02*
X141204144Y-101942767D01*
X141204144Y-101942767D02*
X141347001Y-101895148D01*
X141347001Y-101895148D02*
X141442239Y-101895148D01*
X141442239Y-101895148D02*
X141585096Y-101942767D01*
X141585096Y-101942767D02*
X141632715Y-101990386D01*
X142585096Y-102895148D02*
X142013668Y-102895148D01*
X142299382Y-102895148D02*
X142299382Y-101895148D01*
X142299382Y-101895148D02*
X142204144Y-102038005D01*
X142204144Y-102038005D02*
X142108906Y-102133243D01*
X142108906Y-102133243D02*
X142013668Y-102180862D01*
X142072585Y-92247000D02*
X142072585Y-91247000D01*
X142072585Y-91247000D02*
X142310680Y-91247000D01*
X142310680Y-91247000D02*
X142453537Y-91294619D01*
X142453537Y-91294619D02*
X142548775Y-91389857D01*
X142548775Y-91389857D02*
X142596394Y-91485095D01*
X142596394Y-91485095D02*
X142644013Y-91675571D01*
X142644013Y-91675571D02*
X142644013Y-91818428D01*
X142644013Y-91818428D02*
X142596394Y-92008904D01*
X142596394Y-92008904D02*
X142548775Y-92104142D01*
X142548775Y-92104142D02*
X142453537Y-92199381D01*
X142453537Y-92199381D02*
X142310680Y-92247000D01*
X142310680Y-92247000D02*
X142072585Y-92247000D01*
X143596394Y-92247000D02*
X143024966Y-92247000D01*
X143310680Y-92247000D02*
X143310680Y-91247000D01*
X143310680Y-91247000D02*
X143215442Y-91389857D01*
X143215442Y-91389857D02*
X143120204Y-91485095D01*
X143120204Y-91485095D02*
X143024966Y-91532714D01*
X142948511Y-110830484D02*
X142900892Y-110878104D01*
X142900892Y-110878104D02*
X142758035Y-110925723D01*
X142758035Y-110925723D02*
X142662797Y-110925723D01*
X142662797Y-110925723D02*
X142519940Y-110878104D01*
X142519940Y-110878104D02*
X142424702Y-110782865D01*
X142424702Y-110782865D02*
X142377083Y-110687627D01*
X142377083Y-110687627D02*
X142329464Y-110497151D01*
X142329464Y-110497151D02*
X142329464Y-110354294D01*
X142329464Y-110354294D02*
X142377083Y-110163818D01*
X142377083Y-110163818D02*
X142424702Y-110068580D01*
X142424702Y-110068580D02*
X142519940Y-109973342D01*
X142519940Y-109973342D02*
X142662797Y-109925723D01*
X142662797Y-109925723D02*
X142758035Y-109925723D01*
X142758035Y-109925723D02*
X142900892Y-109973342D01*
X142900892Y-109973342D02*
X142948511Y-110020961D01*
X143281845Y-109925723D02*
X143900892Y-109925723D01*
X143900892Y-109925723D02*
X143567559Y-110306675D01*
X143567559Y-110306675D02*
X143710416Y-110306675D01*
X143710416Y-110306675D02*
X143805654Y-110354294D01*
X143805654Y-110354294D02*
X143853273Y-110401913D01*
X143853273Y-110401913D02*
X143900892Y-110497151D01*
X143900892Y-110497151D02*
X143900892Y-110735246D01*
X143900892Y-110735246D02*
X143853273Y-110830484D01*
X143853273Y-110830484D02*
X143805654Y-110878104D01*
X143805654Y-110878104D02*
X143710416Y-110925723D01*
X143710416Y-110925723D02*
X143424702Y-110925723D01*
X143424702Y-110925723D02*
X143329464Y-110878104D01*
X143329464Y-110878104D02*
X143281845Y-110830484D01*
X155256657Y-57984592D02*
X154923324Y-57984592D01*
X154923324Y-58508402D02*
X154923324Y-57508402D01*
X154923324Y-57508402D02*
X155399514Y-57508402D01*
X155732848Y-57603640D02*
X155780467Y-57556021D01*
X155780467Y-57556021D02*
X155875705Y-57508402D01*
X155875705Y-57508402D02*
X156113800Y-57508402D01*
X156113800Y-57508402D02*
X156209038Y-57556021D01*
X156209038Y-57556021D02*
X156256657Y-57603640D01*
X156256657Y-57603640D02*
X156304276Y-57698878D01*
X156304276Y-57698878D02*
X156304276Y-57794116D01*
X156304276Y-57794116D02*
X156256657Y-57936973D01*
X156256657Y-57936973D02*
X155685229Y-58508402D01*
X155685229Y-58508402D02*
X156304276Y-58508402D01*
X167241540Y-57984592D02*
X166908207Y-57984592D01*
X166908207Y-58508402D02*
X166908207Y-57508402D01*
X166908207Y-57508402D02*
X167384397Y-57508402D01*
X167670112Y-57508402D02*
X168289159Y-57508402D01*
X168289159Y-57508402D02*
X167955826Y-57889354D01*
X167955826Y-57889354D02*
X168098683Y-57889354D01*
X168098683Y-57889354D02*
X168193921Y-57936973D01*
X168193921Y-57936973D02*
X168241540Y-57984592D01*
X168241540Y-57984592D02*
X168289159Y-58079830D01*
X168289159Y-58079830D02*
X168289159Y-58317925D01*
X168289159Y-58317925D02*
X168241540Y-58413163D01*
X168241540Y-58413163D02*
X168193921Y-58460783D01*
X168193921Y-58460783D02*
X168098683Y-58508402D01*
X168098683Y-58508402D02*
X167812969Y-58508402D01*
X167812969Y-58508402D02*
X167717731Y-58460783D01*
X167717731Y-58460783D02*
X167670112Y-58413163D01*
X150962598Y-110126163D02*
X150914979Y-110173783D01*
X150914979Y-110173783D02*
X150772122Y-110221402D01*
X150772122Y-110221402D02*
X150676884Y-110221402D01*
X150676884Y-110221402D02*
X150534027Y-110173783D01*
X150534027Y-110173783D02*
X150438789Y-110078544D01*
X150438789Y-110078544D02*
X150391170Y-109983306D01*
X150391170Y-109983306D02*
X150343551Y-109792830D01*
X150343551Y-109792830D02*
X150343551Y-109649973D01*
X150343551Y-109649973D02*
X150391170Y-109459497D01*
X150391170Y-109459497D02*
X150438789Y-109364259D01*
X150438789Y-109364259D02*
X150534027Y-109269021D01*
X150534027Y-109269021D02*
X150676884Y-109221402D01*
X150676884Y-109221402D02*
X150772122Y-109221402D01*
X150772122Y-109221402D02*
X150914979Y-109269021D01*
X150914979Y-109269021D02*
X150962598Y-109316640D01*
X151867360Y-109221402D02*
X151391170Y-109221402D01*
X151391170Y-109221402D02*
X151343551Y-109697592D01*
X151343551Y-109697592D02*
X151391170Y-109649973D01*
X151391170Y-109649973D02*
X151486408Y-109602354D01*
X151486408Y-109602354D02*
X151724503Y-109602354D01*
X151724503Y-109602354D02*
X151819741Y-109649973D01*
X151819741Y-109649973D02*
X151867360Y-109697592D01*
X151867360Y-109697592D02*
X151914979Y-109792830D01*
X151914979Y-109792830D02*
X151914979Y-110030925D01*
X151914979Y-110030925D02*
X151867360Y-110126163D01*
X151867360Y-110126163D02*
X151819741Y-110173783D01*
X151819741Y-110173783D02*
X151724503Y-110221402D01*
X151724503Y-110221402D02*
X151486408Y-110221402D01*
X151486408Y-110221402D02*
X151391170Y-110173783D01*
X151391170Y-110173783D02*
X151343551Y-110126163D01*
X150196677Y-93712397D02*
X150196677Y-94045730D01*
X150720487Y-94045730D02*
X149720487Y-94045730D01*
X149720487Y-94045730D02*
X149720487Y-93569540D01*
X150196677Y-92855254D02*
X150244296Y-92712397D01*
X150244296Y-92712397D02*
X150291915Y-92664778D01*
X150291915Y-92664778D02*
X150387153Y-92617159D01*
X150387153Y-92617159D02*
X150530010Y-92617159D01*
X150530010Y-92617159D02*
X150625248Y-92664778D01*
X150625248Y-92664778D02*
X150672868Y-92712397D01*
X150672868Y-92712397D02*
X150720487Y-92807635D01*
X150720487Y-92807635D02*
X150720487Y-93188587D01*
X150720487Y-93188587D02*
X149720487Y-93188587D01*
X149720487Y-93188587D02*
X149720487Y-92855254D01*
X149720487Y-92855254D02*
X149768106Y-92760016D01*
X149768106Y-92760016D02*
X149815725Y-92712397D01*
X149815725Y-92712397D02*
X149910963Y-92664778D01*
X149910963Y-92664778D02*
X150006201Y-92664778D01*
X150006201Y-92664778D02*
X150101439Y-92712397D01*
X150101439Y-92712397D02*
X150149058Y-92760016D01*
X150149058Y-92760016D02*
X150196677Y-92855254D01*
X150196677Y-92855254D02*
X150196677Y-93188587D01*
X149815725Y-92236206D02*
X149768106Y-92188587D01*
X149768106Y-92188587D02*
X149720487Y-92093349D01*
X149720487Y-92093349D02*
X149720487Y-91855254D01*
X149720487Y-91855254D02*
X149768106Y-91760016D01*
X149768106Y-91760016D02*
X149815725Y-91712397D01*
X149815725Y-91712397D02*
X149910963Y-91664778D01*
X149910963Y-91664778D02*
X150006201Y-91664778D01*
X150006201Y-91664778D02*
X150149058Y-91712397D01*
X150149058Y-91712397D02*
X150720487Y-92283825D01*
X150720487Y-92283825D02*
X150720487Y-91664778D01*
X143271775Y-57984592D02*
X142938442Y-57984592D01*
X142938442Y-58508402D02*
X142938442Y-57508402D01*
X142938442Y-57508402D02*
X143414632Y-57508402D01*
X144319394Y-58508402D02*
X143747966Y-58508402D01*
X144033680Y-58508402D02*
X144033680Y-57508402D01*
X144033680Y-57508402D02*
X143938442Y-57651259D01*
X143938442Y-57651259D02*
X143843204Y-57746497D01*
X143843204Y-57746497D02*
X143747966Y-57794116D01*
X145729918Y-84062501D02*
X145396585Y-83586310D01*
X145158490Y-84062501D02*
X145158490Y-83062501D01*
X145158490Y-83062501D02*
X145539442Y-83062501D01*
X145539442Y-83062501D02*
X145634680Y-83110120D01*
X145634680Y-83110120D02*
X145682299Y-83157739D01*
X145682299Y-83157739D02*
X145729918Y-83252977D01*
X145729918Y-83252977D02*
X145729918Y-83395834D01*
X145729918Y-83395834D02*
X145682299Y-83491072D01*
X145682299Y-83491072D02*
X145634680Y-83538691D01*
X145634680Y-83538691D02*
X145539442Y-83586310D01*
X145539442Y-83586310D02*
X145158490Y-83586310D01*
X146682299Y-84062501D02*
X146110871Y-84062501D01*
X146396585Y-84062501D02*
X146396585Y-83062501D01*
X146396585Y-83062501D02*
X146301347Y-83205358D01*
X146301347Y-83205358D02*
X146206109Y-83300596D01*
X146206109Y-83300596D02*
X146110871Y-83348215D01*
X150117283Y-55078275D02*
X150117283Y-55792560D01*
X150117283Y-55792560D02*
X150069664Y-55935417D01*
X150069664Y-55935417D02*
X149974426Y-56030656D01*
X149974426Y-56030656D02*
X149831569Y-56078275D01*
X149831569Y-56078275D02*
X149736331Y-56078275D01*
X150545855Y-55173513D02*
X150593474Y-55125894D01*
X150593474Y-55125894D02*
X150688712Y-55078275D01*
X150688712Y-55078275D02*
X150926807Y-55078275D01*
X150926807Y-55078275D02*
X151022045Y-55125894D01*
X151022045Y-55125894D02*
X151069664Y-55173513D01*
X151069664Y-55173513D02*
X151117283Y-55268751D01*
X151117283Y-55268751D02*
X151117283Y-55363989D01*
X151117283Y-55363989D02*
X151069664Y-55506846D01*
X151069664Y-55506846D02*
X150498236Y-56078275D01*
X150498236Y-56078275D02*
X151117283Y-56078275D01*
X154268534Y-99676717D02*
X154268534Y-98676717D01*
X154268534Y-98676717D02*
X154506629Y-98676717D01*
X154506629Y-98676717D02*
X154649486Y-98724336D01*
X154649486Y-98724336D02*
X154744724Y-98819574D01*
X154744724Y-98819574D02*
X154792343Y-98914812D01*
X154792343Y-98914812D02*
X154839962Y-99105288D01*
X154839962Y-99105288D02*
X154839962Y-99248145D01*
X154839962Y-99248145D02*
X154792343Y-99438621D01*
X154792343Y-99438621D02*
X154744724Y-99533859D01*
X154744724Y-99533859D02*
X154649486Y-99629098D01*
X154649486Y-99629098D02*
X154506629Y-99676717D01*
X154506629Y-99676717D02*
X154268534Y-99676717D01*
X155220915Y-98771955D02*
X155268534Y-98724336D01*
X155268534Y-98724336D02*
X155363772Y-98676717D01*
X155363772Y-98676717D02*
X155601867Y-98676717D01*
X155601867Y-98676717D02*
X155697105Y-98724336D01*
X155697105Y-98724336D02*
X155744724Y-98771955D01*
X155744724Y-98771955D02*
X155792343Y-98867193D01*
X155792343Y-98867193D02*
X155792343Y-98962431D01*
X155792343Y-98962431D02*
X155744724Y-99105288D01*
X155744724Y-99105288D02*
X155173296Y-99676717D01*
X155173296Y-99676717D02*
X155792343Y-99676717D01*
X160485554Y-118070689D02*
X160533174Y-118118308D01*
X160533174Y-118118308D02*
X160580793Y-118261165D01*
X160580793Y-118261165D02*
X160580793Y-118356403D01*
X160580793Y-118356403D02*
X160533174Y-118499260D01*
X160533174Y-118499260D02*
X160437935Y-118594498D01*
X160437935Y-118594498D02*
X160342697Y-118642117D01*
X160342697Y-118642117D02*
X160152221Y-118689736D01*
X160152221Y-118689736D02*
X160009364Y-118689736D01*
X160009364Y-118689736D02*
X159818888Y-118642117D01*
X159818888Y-118642117D02*
X159723650Y-118594498D01*
X159723650Y-118594498D02*
X159628412Y-118499260D01*
X159628412Y-118499260D02*
X159580793Y-118356403D01*
X159580793Y-118356403D02*
X159580793Y-118261165D01*
X159580793Y-118261165D02*
X159628412Y-118118308D01*
X159628412Y-118118308D02*
X159676031Y-118070689D01*
X159580793Y-117213546D02*
X159580793Y-117404022D01*
X159580793Y-117404022D02*
X159628412Y-117499260D01*
X159628412Y-117499260D02*
X159676031Y-117546879D01*
X159676031Y-117546879D02*
X159818888Y-117642117D01*
X159818888Y-117642117D02*
X160009364Y-117689736D01*
X160009364Y-117689736D02*
X160390316Y-117689736D01*
X160390316Y-117689736D02*
X160485554Y-117642117D01*
X160485554Y-117642117D02*
X160533174Y-117594498D01*
X160533174Y-117594498D02*
X160580793Y-117499260D01*
X160580793Y-117499260D02*
X160580793Y-117308784D01*
X160580793Y-117308784D02*
X160533174Y-117213546D01*
X160533174Y-117213546D02*
X160485554Y-117165927D01*
X160485554Y-117165927D02*
X160390316Y-117118308D01*
X160390316Y-117118308D02*
X160152221Y-117118308D01*
X160152221Y-117118308D02*
X160056983Y-117165927D01*
X160056983Y-117165927D02*
X160009364Y-117213546D01*
X160009364Y-117213546D02*
X159961745Y-117308784D01*
X159961745Y-117308784D02*
X159961745Y-117499260D01*
X159961745Y-117499260D02*
X160009364Y-117594498D01*
X160009364Y-117594498D02*
X160056983Y-117642117D01*
X160056983Y-117642117D02*
X160152221Y-117689736D01*
X165997690Y-115941722D02*
X165521499Y-116275055D01*
X165997690Y-116513150D02*
X164997690Y-116513150D01*
X164997690Y-116513150D02*
X164997690Y-116132198D01*
X164997690Y-116132198D02*
X165045309Y-116036960D01*
X165045309Y-116036960D02*
X165092928Y-115989341D01*
X165092928Y-115989341D02*
X165188166Y-115941722D01*
X165188166Y-115941722D02*
X165331023Y-115941722D01*
X165331023Y-115941722D02*
X165426261Y-115989341D01*
X165426261Y-115989341D02*
X165473880Y-116036960D01*
X165473880Y-116036960D02*
X165521499Y-116132198D01*
X165521499Y-116132198D02*
X165521499Y-116513150D01*
X164997690Y-115608388D02*
X164997690Y-114989341D01*
X164997690Y-114989341D02*
X165378642Y-115322674D01*
X165378642Y-115322674D02*
X165378642Y-115179817D01*
X165378642Y-115179817D02*
X165426261Y-115084579D01*
X165426261Y-115084579D02*
X165473880Y-115036960D01*
X165473880Y-115036960D02*
X165569118Y-114989341D01*
X165569118Y-114989341D02*
X165807213Y-114989341D01*
X165807213Y-114989341D02*
X165902451Y-115036960D01*
X165902451Y-115036960D02*
X165950071Y-115084579D01*
X165950071Y-115084579D02*
X165997690Y-115179817D01*
X165997690Y-115179817D02*
X165997690Y-115465531D01*
X165997690Y-115465531D02*
X165950071Y-115560769D01*
X165950071Y-115560769D02*
X165902451Y-115608388D01*
X166777889Y-92702021D02*
X166777889Y-91702021D01*
X166777889Y-91702021D02*
X167015984Y-91702021D01*
X167015984Y-91702021D02*
X167158841Y-91749640D01*
X167158841Y-91749640D02*
X167254079Y-91844878D01*
X167254079Y-91844878D02*
X167301698Y-91940116D01*
X167301698Y-91940116D02*
X167349317Y-92130592D01*
X167349317Y-92130592D02*
X167349317Y-92273449D01*
X167349317Y-92273449D02*
X167301698Y-92463925D01*
X167301698Y-92463925D02*
X167254079Y-92559163D01*
X167254079Y-92559163D02*
X167158841Y-92654402D01*
X167158841Y-92654402D02*
X167015984Y-92702021D01*
X167015984Y-92702021D02*
X166777889Y-92702021D01*
X167682651Y-91702021D02*
X168301698Y-91702021D01*
X168301698Y-91702021D02*
X167968365Y-92082973D01*
X167968365Y-92082973D02*
X168111222Y-92082973D01*
X168111222Y-92082973D02*
X168206460Y-92130592D01*
X168206460Y-92130592D02*
X168254079Y-92178211D01*
X168254079Y-92178211D02*
X168301698Y-92273449D01*
X168301698Y-92273449D02*
X168301698Y-92511544D01*
X168301698Y-92511544D02*
X168254079Y-92606782D01*
X168254079Y-92606782D02*
X168206460Y-92654402D01*
X168206460Y-92654402D02*
X168111222Y-92702021D01*
X168111222Y-92702021D02*
X167825508Y-92702021D01*
X167825508Y-92702021D02*
X167730270Y-92654402D01*
X167730270Y-92654402D02*
X167682651Y-92606782D01*
X164085703Y-102833333D02*
X164085703Y-103166666D01*
X164609513Y-103166666D02*
X163609513Y-103166666D01*
X163609513Y-103166666D02*
X163609513Y-102690476D01*
X164085703Y-101976190D02*
X164133322Y-101833333D01*
X164133322Y-101833333D02*
X164180941Y-101785714D01*
X164180941Y-101785714D02*
X164276179Y-101738095D01*
X164276179Y-101738095D02*
X164419036Y-101738095D01*
X164419036Y-101738095D02*
X164514274Y-101785714D01*
X164514274Y-101785714D02*
X164561894Y-101833333D01*
X164561894Y-101833333D02*
X164609513Y-101928571D01*
X164609513Y-101928571D02*
X164609513Y-102309523D01*
X164609513Y-102309523D02*
X163609513Y-102309523D01*
X163609513Y-102309523D02*
X163609513Y-101976190D01*
X163609513Y-101976190D02*
X163657132Y-101880952D01*
X163657132Y-101880952D02*
X163704751Y-101833333D01*
X163704751Y-101833333D02*
X163799989Y-101785714D01*
X163799989Y-101785714D02*
X163895227Y-101785714D01*
X163895227Y-101785714D02*
X163990465Y-101833333D01*
X163990465Y-101833333D02*
X164038084Y-101880952D01*
X164038084Y-101880952D02*
X164085703Y-101976190D01*
X164085703Y-101976190D02*
X164085703Y-102309523D01*
X163609513Y-101404761D02*
X163609513Y-100785714D01*
X163609513Y-100785714D02*
X163990465Y-101119047D01*
X163990465Y-101119047D02*
X163990465Y-100976190D01*
X163990465Y-100976190D02*
X164038084Y-100880952D01*
X164038084Y-100880952D02*
X164085703Y-100833333D01*
X164085703Y-100833333D02*
X164180941Y-100785714D01*
X164180941Y-100785714D02*
X164419036Y-100785714D01*
X164419036Y-100785714D02*
X164514274Y-100833333D01*
X164514274Y-100833333D02*
X164561894Y-100880952D01*
X164561894Y-100880952D02*
X164609513Y-100976190D01*
X164609513Y-100976190D02*
X164609513Y-101261904D01*
X164609513Y-101261904D02*
X164561894Y-101357142D01*
X164561894Y-101357142D02*
X164514274Y-101404761D01*
X173535322Y-108239724D02*
X173487703Y-108287344D01*
X173487703Y-108287344D02*
X173344846Y-108334963D01*
X173344846Y-108334963D02*
X173249608Y-108334963D01*
X173249608Y-108334963D02*
X173106751Y-108287344D01*
X173106751Y-108287344D02*
X173011513Y-108192105D01*
X173011513Y-108192105D02*
X172963894Y-108096867D01*
X172963894Y-108096867D02*
X172916275Y-107906391D01*
X172916275Y-107906391D02*
X172916275Y-107763534D01*
X172916275Y-107763534D02*
X172963894Y-107573058D01*
X172963894Y-107573058D02*
X173011513Y-107477820D01*
X173011513Y-107477820D02*
X173106751Y-107382582D01*
X173106751Y-107382582D02*
X173249608Y-107334963D01*
X173249608Y-107334963D02*
X173344846Y-107334963D01*
X173344846Y-107334963D02*
X173487703Y-107382582D01*
X173487703Y-107382582D02*
X173535322Y-107430201D01*
X174106751Y-107763534D02*
X174011513Y-107715915D01*
X174011513Y-107715915D02*
X173963894Y-107668296D01*
X173963894Y-107668296D02*
X173916275Y-107573058D01*
X173916275Y-107573058D02*
X173916275Y-107525439D01*
X173916275Y-107525439D02*
X173963894Y-107430201D01*
X173963894Y-107430201D02*
X174011513Y-107382582D01*
X174011513Y-107382582D02*
X174106751Y-107334963D01*
X174106751Y-107334963D02*
X174297227Y-107334963D01*
X174297227Y-107334963D02*
X174392465Y-107382582D01*
X174392465Y-107382582D02*
X174440084Y-107430201D01*
X174440084Y-107430201D02*
X174487703Y-107525439D01*
X174487703Y-107525439D02*
X174487703Y-107573058D01*
X174487703Y-107573058D02*
X174440084Y-107668296D01*
X174440084Y-107668296D02*
X174392465Y-107715915D01*
X174392465Y-107715915D02*
X174297227Y-107763534D01*
X174297227Y-107763534D02*
X174106751Y-107763534D01*
X174106751Y-107763534D02*
X174011513Y-107811153D01*
X174011513Y-107811153D02*
X173963894Y-107858772D01*
X173963894Y-107858772D02*
X173916275Y-107954010D01*
X173916275Y-107954010D02*
X173916275Y-108144486D01*
X173916275Y-108144486D02*
X173963894Y-108239724D01*
X173963894Y-108239724D02*
X174011513Y-108287344D01*
X174011513Y-108287344D02*
X174106751Y-108334963D01*
X174106751Y-108334963D02*
X174297227Y-108334963D01*
X174297227Y-108334963D02*
X174392465Y-108287344D01*
X174392465Y-108287344D02*
X174440084Y-108239724D01*
X174440084Y-108239724D02*
X174487703Y-108144486D01*
X174487703Y-108144486D02*
X174487703Y-107954010D01*
X174487703Y-107954010D02*
X174440084Y-107858772D01*
X174440084Y-107858772D02*
X174392465Y-107811153D01*
X174392465Y-107811153D02*
X174297227Y-107763534D01*
D11*
%TO.C,C2*%
X142223367Y-103648641D02*
X149663367Y-103648641D01*
X142223367Y-108388641D02*
X142223367Y-103648641D01*
X149663367Y-103648641D02*
X149663367Y-108388641D01*
X149663367Y-108388641D02*
X142223367Y-108388641D01*
%TO.C,R6*%
X168075790Y-84451938D02*
X171915790Y-84451938D01*
X168075790Y-86291938D02*
X171915790Y-86291938D01*
%TO.C,R4*%
X167119410Y-111818751D02*
X170959410Y-111818751D01*
X167119410Y-113658751D02*
X170959410Y-113658751D01*
%TO.C,C4*%
X150129104Y-105457699D02*
X150129104Y-104259699D01*
X150169104Y-105720699D02*
X150169104Y-103996699D01*
X150209104Y-105920699D02*
X150209104Y-103796699D01*
X150249104Y-106088699D02*
X150249104Y-103628699D01*
X150289104Y-106235699D02*
X150289104Y-103481699D01*
X150329104Y-106367699D02*
X150329104Y-103349699D01*
X150369104Y-106488699D02*
X150369104Y-103228699D01*
X150409104Y-106600699D02*
X150409104Y-103116699D01*
X150449104Y-106704699D02*
X150449104Y-103012699D01*
X150489104Y-106802699D02*
X150489104Y-102914699D01*
X150529104Y-106895699D02*
X150529104Y-102821699D01*
X150569104Y-106982699D02*
X150569104Y-102734699D01*
X150609104Y-107066699D02*
X150609104Y-102650699D01*
X150649104Y-107146699D02*
X150649104Y-102570699D01*
X150689104Y-107223699D02*
X150689104Y-102493699D01*
X150729104Y-107297699D02*
X150729104Y-102419699D01*
X150769104Y-107368699D02*
X150769104Y-102348699D01*
X150809104Y-107436699D02*
X150809104Y-102280699D01*
X150849104Y-107502699D02*
X150849104Y-102214699D01*
X150889104Y-107566699D02*
X150889104Y-102150699D01*
X150929104Y-107628699D02*
X150929104Y-102088699D01*
X150969104Y-107688699D02*
X150969104Y-102028699D01*
X151009104Y-107746699D02*
X151009104Y-101970699D01*
X151049104Y-107803699D02*
X151049104Y-101913699D01*
X151089104Y-107858699D02*
X151089104Y-101858699D01*
X151129104Y-107911699D02*
X151129104Y-101805699D01*
X151169104Y-107963699D02*
X151169104Y-101753699D01*
X151209104Y-108014699D02*
X151209104Y-101702699D01*
X151249104Y-108063699D02*
X151249104Y-101653699D01*
X151289104Y-108112699D02*
X151289104Y-101604699D01*
X151329104Y-108159699D02*
X151329104Y-101557699D01*
X151369104Y-108205699D02*
X151369104Y-101511699D01*
X151409104Y-108249699D02*
X151409104Y-101467699D01*
X151449104Y-108293699D02*
X151449104Y-101423699D01*
X151489104Y-103618699D02*
X151489104Y-101380699D01*
X151489104Y-108336699D02*
X151489104Y-106098699D01*
X151529104Y-103618699D02*
X151529104Y-101338699D01*
X151529104Y-108378699D02*
X151529104Y-106098699D01*
X151569104Y-103618699D02*
X151569104Y-101297699D01*
X151569104Y-108419699D02*
X151569104Y-106098699D01*
X151609104Y-103618699D02*
X151609104Y-101257699D01*
X151609104Y-108459699D02*
X151609104Y-106098699D01*
X151649104Y-103618699D02*
X151649104Y-101218699D01*
X151649104Y-108498699D02*
X151649104Y-106098699D01*
X151689104Y-103618699D02*
X151689104Y-101180699D01*
X151689104Y-108536699D02*
X151689104Y-106098699D01*
X151729104Y-103618699D02*
X151729104Y-101142699D01*
X151729104Y-108574699D02*
X151729104Y-106098699D01*
X151769104Y-103618699D02*
X151769104Y-101106699D01*
X151769104Y-108610699D02*
X151769104Y-106098699D01*
X151809104Y-103618699D02*
X151809104Y-101070699D01*
X151809104Y-108646699D02*
X151809104Y-106098699D01*
X151849104Y-103618699D02*
X151849104Y-101035699D01*
X151849104Y-108681699D02*
X151849104Y-106098699D01*
X151889104Y-103618699D02*
X151889104Y-101000699D01*
X151889104Y-108716699D02*
X151889104Y-106098699D01*
X151929104Y-103618699D02*
X151929104Y-100967699D01*
X151929104Y-108749699D02*
X151929104Y-106098699D01*
X151969104Y-103618699D02*
X151969104Y-100934699D01*
X151969104Y-108782699D02*
X151969104Y-106098699D01*
X152009104Y-103618699D02*
X152009104Y-100901699D01*
X152009104Y-108815699D02*
X152009104Y-106098699D01*
X152049104Y-103618699D02*
X152049104Y-100870699D01*
X152049104Y-108846699D02*
X152049104Y-106098699D01*
X152089104Y-103618699D02*
X152089104Y-100838699D01*
X152089104Y-108878699D02*
X152089104Y-106098699D01*
X152129104Y-103618699D02*
X152129104Y-100808699D01*
X152129104Y-108908699D02*
X152129104Y-106098699D01*
X152169104Y-103618699D02*
X152169104Y-100778699D01*
X152169104Y-108938699D02*
X152169104Y-106098699D01*
X152209104Y-103618699D02*
X152209104Y-100749699D01*
X152209104Y-108967699D02*
X152209104Y-106098699D01*
X152249104Y-103618699D02*
X152249104Y-100720699D01*
X152249104Y-108996699D02*
X152249104Y-106098699D01*
X152289104Y-103618699D02*
X152289104Y-100692699D01*
X152289104Y-109024699D02*
X152289104Y-106098699D01*
X152329104Y-103618699D02*
X152329104Y-100665699D01*
X152329104Y-109051699D02*
X152329104Y-106098699D01*
X152369104Y-103618699D02*
X152369104Y-100638699D01*
X152369104Y-109078699D02*
X152369104Y-106098699D01*
X152409104Y-103618699D02*
X152409104Y-100611699D01*
X152409104Y-109105699D02*
X152409104Y-106098699D01*
X152449104Y-103618699D02*
X152449104Y-100586699D01*
X152449104Y-109130699D02*
X152449104Y-106098699D01*
X152489104Y-103618699D02*
X152489104Y-100560699D01*
X152489104Y-109156699D02*
X152489104Y-106098699D01*
X152529104Y-103618699D02*
X152529104Y-100535699D01*
X152529104Y-109181699D02*
X152529104Y-106098699D01*
X152569104Y-103618699D02*
X152569104Y-100511699D01*
X152569104Y-109205699D02*
X152569104Y-106098699D01*
X152609104Y-103618699D02*
X152609104Y-100487699D01*
X152609104Y-109229699D02*
X152609104Y-106098699D01*
X152649104Y-103618699D02*
X152649104Y-100464699D01*
X152649104Y-109252699D02*
X152649104Y-106098699D01*
X152689104Y-103618699D02*
X152689104Y-100441699D01*
X152689104Y-109275699D02*
X152689104Y-106098699D01*
X152729104Y-103618699D02*
X152729104Y-100419699D01*
X152729104Y-109297699D02*
X152729104Y-106098699D01*
X152769104Y-103618699D02*
X152769104Y-100397699D01*
X152769104Y-109319699D02*
X152769104Y-106098699D01*
X152809104Y-103618699D02*
X152809104Y-100375699D01*
X152809104Y-109341699D02*
X152809104Y-106098699D01*
X152849104Y-103618699D02*
X152849104Y-100354699D01*
X152849104Y-109362699D02*
X152849104Y-106098699D01*
X152889104Y-103618699D02*
X152889104Y-100334699D01*
X152889104Y-109382699D02*
X152889104Y-106098699D01*
X152929104Y-103618699D02*
X152929104Y-100314699D01*
X152929104Y-109402699D02*
X152929104Y-106098699D01*
X152969104Y-103618699D02*
X152969104Y-100294699D01*
X152969104Y-109422699D02*
X152969104Y-106098699D01*
X153009104Y-103618699D02*
X153009104Y-100275699D01*
X153009104Y-109441699D02*
X153009104Y-106098699D01*
X153049104Y-103618699D02*
X153049104Y-100256699D01*
X153049104Y-109460699D02*
X153049104Y-106098699D01*
X153089104Y-103618699D02*
X153089104Y-100238699D01*
X153089104Y-109478699D02*
X153089104Y-106098699D01*
X153129104Y-103618699D02*
X153129104Y-100220699D01*
X153129104Y-109496699D02*
X153129104Y-106098699D01*
X153169104Y-103618699D02*
X153169104Y-100202699D01*
X153169104Y-109514699D02*
X153169104Y-106098699D01*
X153209104Y-103618699D02*
X153209104Y-100185699D01*
X153209104Y-109531699D02*
X153209104Y-106098699D01*
X153249104Y-103618699D02*
X153249104Y-100168699D01*
X153249104Y-109548699D02*
X153249104Y-106098699D01*
X153289104Y-103618699D02*
X153289104Y-100152699D01*
X153289104Y-109564699D02*
X153289104Y-106098699D01*
X153329104Y-103618699D02*
X153329104Y-100136699D01*
X153329104Y-109580699D02*
X153329104Y-106098699D01*
X153369104Y-103618699D02*
X153369104Y-100120699D01*
X153369104Y-109596699D02*
X153369104Y-106098699D01*
X153409104Y-103618699D02*
X153409104Y-100105699D01*
X153409104Y-109611699D02*
X153409104Y-106098699D01*
X153449104Y-103618699D02*
X153449104Y-100090699D01*
X153449104Y-109626699D02*
X153449104Y-106098699D01*
X153489104Y-103618699D02*
X153489104Y-100076699D01*
X153489104Y-109640699D02*
X153489104Y-106098699D01*
X153529104Y-103618699D02*
X153529104Y-100061699D01*
X153529104Y-109655699D02*
X153529104Y-106098699D01*
X153569104Y-103618699D02*
X153569104Y-100048699D01*
X153569104Y-109668699D02*
X153569104Y-106098699D01*
X153609104Y-103618699D02*
X153609104Y-100034699D01*
X153609104Y-109682699D02*
X153609104Y-106098699D01*
X153649104Y-103618699D02*
X153649104Y-100021699D01*
X153649104Y-109695699D02*
X153649104Y-106098699D01*
X153689104Y-103618699D02*
X153689104Y-100009699D01*
X153689104Y-109707699D02*
X153689104Y-106098699D01*
X153729104Y-103618699D02*
X153729104Y-99997699D01*
X153729104Y-109719699D02*
X153729104Y-106098699D01*
X153769104Y-103618699D02*
X153769104Y-99985699D01*
X153769104Y-109731699D02*
X153769104Y-106098699D01*
X153809104Y-103618699D02*
X153809104Y-99973699D01*
X153809104Y-109743699D02*
X153809104Y-106098699D01*
X153849104Y-103618699D02*
X153849104Y-99962699D01*
X153849104Y-109754699D02*
X153849104Y-106098699D01*
X153889104Y-103618699D02*
X153889104Y-99951699D01*
X153889104Y-109765699D02*
X153889104Y-106098699D01*
X153929104Y-103618699D02*
X153929104Y-99941699D01*
X153929104Y-109775699D02*
X153929104Y-106098699D01*
X153969104Y-109786699D02*
X153969104Y-99930699D01*
X154009104Y-109795699D02*
X154009104Y-99921699D01*
X154049104Y-109805699D02*
X154049104Y-99911699D01*
X154089104Y-109814699D02*
X154089104Y-99902699D01*
X154129104Y-109823699D02*
X154129104Y-99893699D01*
X154169104Y-109831699D02*
X154169104Y-99885699D01*
X154209104Y-109839699D02*
X154209104Y-99877699D01*
X154249104Y-109847699D02*
X154249104Y-99869699D01*
X154289104Y-109855699D02*
X154289104Y-99861699D01*
X154329104Y-109862699D02*
X154329104Y-99854699D01*
X154369104Y-109869699D02*
X154369104Y-99847699D01*
X154409104Y-109875699D02*
X154409104Y-99841699D01*
X154449104Y-109881699D02*
X154449104Y-99835699D01*
X154489104Y-109887699D02*
X154489104Y-99829699D01*
X154529104Y-109893699D02*
X154529104Y-99823699D01*
X154569104Y-109898699D02*
X154569104Y-99818699D01*
X154609104Y-109903699D02*
X154609104Y-99813699D01*
X154649104Y-109907699D02*
X154649104Y-99809699D01*
X154689104Y-109912699D02*
X154689104Y-99804699D01*
X154729104Y-109915699D02*
X154729104Y-99801699D01*
X154769104Y-109919699D02*
X154769104Y-99797699D01*
X154809104Y-109922699D02*
X154809104Y-99794699D01*
X154849104Y-109925699D02*
X154849104Y-99791699D01*
X154889104Y-109928699D02*
X154889104Y-99788699D01*
X154929104Y-109930699D02*
X154929104Y-99786699D01*
X154969104Y-109932699D02*
X154969104Y-99784699D01*
X155009104Y-109934699D02*
X155009104Y-99782699D01*
X155049104Y-109935699D02*
X155049104Y-99781699D01*
X155089104Y-109937699D02*
X155089104Y-99779699D01*
X155129104Y-109937699D02*
X155129104Y-99779699D01*
X155169104Y-109938699D02*
X155169104Y-99778699D01*
X155209104Y-109938699D02*
X155209104Y-99778699D01*
X160188750Y-108233699D02*
X160188750Y-107233699D01*
X160688750Y-107733699D02*
X159688750Y-107733699D01*
X160329104Y-104858699D02*
G75*
G02*
X150089104Y-104858699I-5120000J0D01*
G01*
X150089104Y-104858699D02*
G75*
G02*
X160329104Y-104858699I5120000J0D01*
G01*
%TO.C,J1*%
X145559529Y-115578189D02*
X145559529Y-116828189D01*
X145849529Y-115868189D02*
X145849529Y-121838189D01*
X145849529Y-121838189D02*
X158469529Y-121838189D01*
X145859529Y-115878189D02*
X145859529Y-116628189D01*
X145859529Y-116628189D02*
X147659529Y-116628189D01*
X145859529Y-118128189D02*
X146609529Y-118128189D01*
X146609529Y-118128189D02*
X146609529Y-121078189D01*
X146609529Y-121078189D02*
X152159529Y-121078189D01*
X146809529Y-115578189D02*
X145559529Y-115578189D01*
X147659529Y-115878189D02*
X145859529Y-115878189D01*
X147659529Y-116628189D02*
X147659529Y-115878189D01*
X149159529Y-115878189D02*
X149159529Y-116628189D01*
X149159529Y-116628189D02*
X155159529Y-116628189D01*
X155159529Y-115878189D02*
X149159529Y-115878189D01*
X155159529Y-116628189D02*
X155159529Y-115878189D01*
X156659529Y-115878189D02*
X156659529Y-116628189D01*
X156659529Y-116628189D02*
X158459529Y-116628189D01*
X157709529Y-118128189D02*
X157709529Y-121078189D01*
X157709529Y-121078189D02*
X152159529Y-121078189D01*
X158459529Y-115878189D02*
X156659529Y-115878189D01*
X158459529Y-116628189D02*
X158459529Y-115878189D01*
X158459529Y-118128189D02*
X157709529Y-118128189D01*
X158469529Y-115868189D02*
X145849529Y-115868189D01*
X158469529Y-121838189D02*
X158469529Y-115868189D01*
%TO.C,C7*%
X163652677Y-95325085D02*
X164652677Y-95325085D01*
X164152677Y-94825085D02*
X164152677Y-95825085D01*
X169132323Y-93120085D02*
X169132323Y-103280085D01*
X169172323Y-93120085D02*
X169172323Y-103280085D01*
X169212323Y-93121085D02*
X169212323Y-103279085D01*
X169252323Y-93121085D02*
X169252323Y-103279085D01*
X169292323Y-93123085D02*
X169292323Y-103277085D01*
X169332323Y-93124085D02*
X169332323Y-103276085D01*
X169372323Y-93126085D02*
X169372323Y-103274085D01*
X169412323Y-93128085D02*
X169412323Y-103272085D01*
X169452323Y-93130085D02*
X169452323Y-103270085D01*
X169492323Y-93133085D02*
X169492323Y-103267085D01*
X169532323Y-93136085D02*
X169532323Y-103264085D01*
X169572323Y-93139085D02*
X169572323Y-103261085D01*
X169612323Y-93143085D02*
X169612323Y-103257085D01*
X169652323Y-93146085D02*
X169652323Y-103254085D01*
X169692323Y-93151085D02*
X169692323Y-103249085D01*
X169732323Y-93155085D02*
X169732323Y-103245085D01*
X169772323Y-93160085D02*
X169772323Y-103240085D01*
X169812323Y-93165085D02*
X169812323Y-103235085D01*
X169852323Y-93171085D02*
X169852323Y-103229085D01*
X169892323Y-93177085D02*
X169892323Y-103223085D01*
X169932323Y-93183085D02*
X169932323Y-103217085D01*
X169972323Y-93189085D02*
X169972323Y-103211085D01*
X170012323Y-93196085D02*
X170012323Y-103204085D01*
X170052323Y-93203085D02*
X170052323Y-103197085D01*
X170092323Y-93211085D02*
X170092323Y-103189085D01*
X170132323Y-93219085D02*
X170132323Y-103181085D01*
X170172323Y-93227085D02*
X170172323Y-103173085D01*
X170212323Y-93235085D02*
X170212323Y-103165085D01*
X170252323Y-93244085D02*
X170252323Y-103156085D01*
X170292323Y-93253085D02*
X170292323Y-103147085D01*
X170332323Y-93263085D02*
X170332323Y-103137085D01*
X170372323Y-93272085D02*
X170372323Y-103128085D01*
X170412323Y-93283085D02*
X170412323Y-96960085D01*
X170412323Y-99440085D02*
X170412323Y-103117085D01*
X170452323Y-93293085D02*
X170452323Y-96960085D01*
X170452323Y-99440085D02*
X170452323Y-103107085D01*
X170492323Y-93304085D02*
X170492323Y-96960085D01*
X170492323Y-99440085D02*
X170492323Y-103096085D01*
X170532323Y-93315085D02*
X170532323Y-96960085D01*
X170532323Y-99440085D02*
X170532323Y-103085085D01*
X170572323Y-93327085D02*
X170572323Y-96960085D01*
X170572323Y-99440085D02*
X170572323Y-103073085D01*
X170612323Y-93339085D02*
X170612323Y-96960085D01*
X170612323Y-99440085D02*
X170612323Y-103061085D01*
X170652323Y-93351085D02*
X170652323Y-96960085D01*
X170652323Y-99440085D02*
X170652323Y-103049085D01*
X170692323Y-93363085D02*
X170692323Y-96960085D01*
X170692323Y-99440085D02*
X170692323Y-103037085D01*
X170732323Y-93376085D02*
X170732323Y-96960085D01*
X170732323Y-99440085D02*
X170732323Y-103024085D01*
X170772323Y-93390085D02*
X170772323Y-96960085D01*
X170772323Y-99440085D02*
X170772323Y-103010085D01*
X170812323Y-93403085D02*
X170812323Y-96960085D01*
X170812323Y-99440085D02*
X170812323Y-102997085D01*
X170852323Y-93418085D02*
X170852323Y-96960085D01*
X170852323Y-99440085D02*
X170852323Y-102982085D01*
X170892323Y-93432085D02*
X170892323Y-96960085D01*
X170892323Y-99440085D02*
X170892323Y-102968085D01*
X170932323Y-93447085D02*
X170932323Y-96960085D01*
X170932323Y-99440085D02*
X170932323Y-102953085D01*
X170972323Y-93462085D02*
X170972323Y-96960085D01*
X170972323Y-99440085D02*
X170972323Y-102938085D01*
X171012323Y-93478085D02*
X171012323Y-96960085D01*
X171012323Y-99440085D02*
X171012323Y-102922085D01*
X171052323Y-93494085D02*
X171052323Y-96960085D01*
X171052323Y-99440085D02*
X171052323Y-102906085D01*
X171092323Y-93510085D02*
X171092323Y-96960085D01*
X171092323Y-99440085D02*
X171092323Y-102890085D01*
X171132323Y-93527085D02*
X171132323Y-96960085D01*
X171132323Y-99440085D02*
X171132323Y-102873085D01*
X171172323Y-93544085D02*
X171172323Y-96960085D01*
X171172323Y-99440085D02*
X171172323Y-102856085D01*
X171212323Y-93562085D02*
X171212323Y-96960085D01*
X171212323Y-99440085D02*
X171212323Y-102838085D01*
X171252323Y-93580085D02*
X171252323Y-96960085D01*
X171252323Y-99440085D02*
X171252323Y-102820085D01*
X171292323Y-93598085D02*
X171292323Y-96960085D01*
X171292323Y-99440085D02*
X171292323Y-102802085D01*
X171332323Y-93617085D02*
X171332323Y-96960085D01*
X171332323Y-99440085D02*
X171332323Y-102783085D01*
X171372323Y-93636085D02*
X171372323Y-96960085D01*
X171372323Y-99440085D02*
X171372323Y-102764085D01*
X171412323Y-93656085D02*
X171412323Y-96960085D01*
X171412323Y-99440085D02*
X171412323Y-102744085D01*
X171452323Y-93676085D02*
X171452323Y-96960085D01*
X171452323Y-99440085D02*
X171452323Y-102724085D01*
X171492323Y-93696085D02*
X171492323Y-96960085D01*
X171492323Y-99440085D02*
X171492323Y-102704085D01*
X171532323Y-93717085D02*
X171532323Y-96960085D01*
X171532323Y-99440085D02*
X171532323Y-102683085D01*
X171572323Y-93739085D02*
X171572323Y-96960085D01*
X171572323Y-99440085D02*
X171572323Y-102661085D01*
X171612323Y-93761085D02*
X171612323Y-96960085D01*
X171612323Y-99440085D02*
X171612323Y-102639085D01*
X171652323Y-93783085D02*
X171652323Y-96960085D01*
X171652323Y-99440085D02*
X171652323Y-102617085D01*
X171692323Y-93806085D02*
X171692323Y-96960085D01*
X171692323Y-99440085D02*
X171692323Y-102594085D01*
X171732323Y-93829085D02*
X171732323Y-96960085D01*
X171732323Y-99440085D02*
X171732323Y-102571085D01*
X171772323Y-93853085D02*
X171772323Y-96960085D01*
X171772323Y-99440085D02*
X171772323Y-102547085D01*
X171812323Y-93877085D02*
X171812323Y-96960085D01*
X171812323Y-99440085D02*
X171812323Y-102523085D01*
X171852323Y-93902085D02*
X171852323Y-96960085D01*
X171852323Y-99440085D02*
X171852323Y-102498085D01*
X171892323Y-93928085D02*
X171892323Y-96960085D01*
X171892323Y-99440085D02*
X171892323Y-102472085D01*
X171932323Y-93953085D02*
X171932323Y-96960085D01*
X171932323Y-99440085D02*
X171932323Y-102447085D01*
X171972323Y-93980085D02*
X171972323Y-96960085D01*
X171972323Y-99440085D02*
X171972323Y-102420085D01*
X172012323Y-94007085D02*
X172012323Y-96960085D01*
X172012323Y-99440085D02*
X172012323Y-102393085D01*
X172052323Y-94034085D02*
X172052323Y-96960085D01*
X172052323Y-99440085D02*
X172052323Y-102366085D01*
X172092323Y-94062085D02*
X172092323Y-96960085D01*
X172092323Y-99440085D02*
X172092323Y-102338085D01*
X172132323Y-94091085D02*
X172132323Y-96960085D01*
X172132323Y-99440085D02*
X172132323Y-102309085D01*
X172172323Y-94120085D02*
X172172323Y-96960085D01*
X172172323Y-99440085D02*
X172172323Y-102280085D01*
X172212323Y-94150085D02*
X172212323Y-96960085D01*
X172212323Y-99440085D02*
X172212323Y-102250085D01*
X172252323Y-94180085D02*
X172252323Y-96960085D01*
X172252323Y-99440085D02*
X172252323Y-102220085D01*
X172292323Y-94212085D02*
X172292323Y-96960085D01*
X172292323Y-99440085D02*
X172292323Y-102188085D01*
X172332323Y-94243085D02*
X172332323Y-96960085D01*
X172332323Y-99440085D02*
X172332323Y-102157085D01*
X172372323Y-94276085D02*
X172372323Y-96960085D01*
X172372323Y-99440085D02*
X172372323Y-102124085D01*
X172412323Y-94309085D02*
X172412323Y-96960085D01*
X172412323Y-99440085D02*
X172412323Y-102091085D01*
X172452323Y-94342085D02*
X172452323Y-96960085D01*
X172452323Y-99440085D02*
X172452323Y-102058085D01*
X172492323Y-94377085D02*
X172492323Y-96960085D01*
X172492323Y-99440085D02*
X172492323Y-102023085D01*
X172532323Y-94412085D02*
X172532323Y-96960085D01*
X172532323Y-99440085D02*
X172532323Y-101988085D01*
X172572323Y-94448085D02*
X172572323Y-96960085D01*
X172572323Y-99440085D02*
X172572323Y-101952085D01*
X172612323Y-94484085D02*
X172612323Y-96960085D01*
X172612323Y-99440085D02*
X172612323Y-101916085D01*
X172652323Y-94522085D02*
X172652323Y-96960085D01*
X172652323Y-99440085D02*
X172652323Y-101878085D01*
X172692323Y-94560085D02*
X172692323Y-96960085D01*
X172692323Y-99440085D02*
X172692323Y-101840085D01*
X172732323Y-94599085D02*
X172732323Y-96960085D01*
X172732323Y-99440085D02*
X172732323Y-101801085D01*
X172772323Y-94639085D02*
X172772323Y-96960085D01*
X172772323Y-99440085D02*
X172772323Y-101761085D01*
X172812323Y-94680085D02*
X172812323Y-96960085D01*
X172812323Y-99440085D02*
X172812323Y-101720085D01*
X172852323Y-94722085D02*
X172852323Y-96960085D01*
X172852323Y-99440085D02*
X172852323Y-101678085D01*
X172892323Y-94765085D02*
X172892323Y-101635085D01*
X172932323Y-94809085D02*
X172932323Y-101591085D01*
X172972323Y-94853085D02*
X172972323Y-101547085D01*
X173012323Y-94899085D02*
X173012323Y-101501085D01*
X173052323Y-94946085D02*
X173052323Y-101454085D01*
X173092323Y-94995085D02*
X173092323Y-101405085D01*
X173132323Y-95044085D02*
X173132323Y-101356085D01*
X173172323Y-95095085D02*
X173172323Y-101305085D01*
X173212323Y-95147085D02*
X173212323Y-101253085D01*
X173252323Y-95200085D02*
X173252323Y-101200085D01*
X173292323Y-95255085D02*
X173292323Y-101145085D01*
X173332323Y-95312085D02*
X173332323Y-101088085D01*
X173372323Y-95370085D02*
X173372323Y-101030085D01*
X173412323Y-95430085D02*
X173412323Y-100970085D01*
X173452323Y-95492085D02*
X173452323Y-100908085D01*
X173492323Y-95556085D02*
X173492323Y-100844085D01*
X173532323Y-95622085D02*
X173532323Y-100778085D01*
X173572323Y-95690085D02*
X173572323Y-100710085D01*
X173612323Y-95761085D02*
X173612323Y-100639085D01*
X173652323Y-95835085D02*
X173652323Y-100565085D01*
X173692323Y-95912085D02*
X173692323Y-100488085D01*
X173732323Y-95992085D02*
X173732323Y-100408085D01*
X173772323Y-96076085D02*
X173772323Y-100324085D01*
X173812323Y-96163085D02*
X173812323Y-100237085D01*
X173852323Y-96256085D02*
X173852323Y-100144085D01*
X173892323Y-96354085D02*
X173892323Y-100046085D01*
X173932323Y-96458085D02*
X173932323Y-99942085D01*
X173972323Y-96570085D02*
X173972323Y-99830085D01*
X174012323Y-96691085D02*
X174012323Y-99709085D01*
X174052323Y-96823085D02*
X174052323Y-99577085D01*
X174092323Y-96970085D02*
X174092323Y-99430085D01*
X174132323Y-97138085D02*
X174132323Y-99262085D01*
X174172323Y-97338085D02*
X174172323Y-99062085D01*
X174212323Y-97601085D02*
X174212323Y-98799085D01*
X174252323Y-98200085D02*
G75*
G02*
X164012323Y-98200085I-5120000J0D01*
G01*
X164012323Y-98200085D02*
G75*
G02*
X174252323Y-98200085I5120000J0D01*
G01*
%TO.C,C9*%
X168209410Y-108737884D02*
X172449410Y-108737884D01*
X168209410Y-109537884D02*
X168209410Y-108737884D01*
X168209410Y-111477884D02*
X168209410Y-110677884D01*
X172449410Y-108737884D02*
X172449410Y-109537884D01*
X172449410Y-110677884D02*
X172449410Y-111477884D01*
X172449410Y-111477884D02*
X168209410Y-111477884D01*
%TO.C,R5*%
X154959788Y-87495059D02*
X154959788Y-91335059D01*
X156799788Y-87495059D02*
X156799788Y-91335059D01*
%TO.C,FB4*%
X177018913Y-91620085D02*
X174578913Y-91620085D01*
X174578913Y-97160085D01*
X177018913Y-97160085D01*
X177018913Y-91620085D01*
%TO.C,R2*%
X143983367Y-111812182D02*
X147823367Y-111812182D01*
X143983367Y-113652182D02*
X147823367Y-113652182D01*
%TO.C,C1*%
X140863367Y-98789216D02*
X140863367Y-97591216D01*
X140903367Y-99052216D02*
X140903367Y-97328216D01*
X140943367Y-99252216D02*
X140943367Y-97128216D01*
X140983367Y-99420216D02*
X140983367Y-96960216D01*
X141023367Y-99567216D02*
X141023367Y-96813216D01*
X141063367Y-99699216D02*
X141063367Y-96681216D01*
X141103367Y-99820216D02*
X141103367Y-96560216D01*
X141143367Y-99932216D02*
X141143367Y-96448216D01*
X141183367Y-100036216D02*
X141183367Y-96344216D01*
X141223367Y-100134216D02*
X141223367Y-96246216D01*
X141263367Y-100227216D02*
X141263367Y-96153216D01*
X141303367Y-100314216D02*
X141303367Y-96066216D01*
X141343367Y-100398216D02*
X141343367Y-95982216D01*
X141383367Y-100478216D02*
X141383367Y-95902216D01*
X141423367Y-100555216D02*
X141423367Y-95825216D01*
X141463367Y-100629216D02*
X141463367Y-95751216D01*
X141503367Y-100700216D02*
X141503367Y-95680216D01*
X141543367Y-100768216D02*
X141543367Y-95612216D01*
X141583367Y-100834216D02*
X141583367Y-95546216D01*
X141623367Y-100898216D02*
X141623367Y-95482216D01*
X141663367Y-100960216D02*
X141663367Y-95420216D01*
X141703367Y-101020216D02*
X141703367Y-95360216D01*
X141743367Y-101078216D02*
X141743367Y-95302216D01*
X141783367Y-101135216D02*
X141783367Y-95245216D01*
X141823367Y-101190216D02*
X141823367Y-95190216D01*
X141863367Y-101243216D02*
X141863367Y-95137216D01*
X141903367Y-101295216D02*
X141903367Y-95085216D01*
X141943367Y-101346216D02*
X141943367Y-95034216D01*
X141983367Y-101395216D02*
X141983367Y-94985216D01*
X142023367Y-101444216D02*
X142023367Y-94936216D01*
X142063367Y-101491216D02*
X142063367Y-94889216D01*
X142103367Y-101537216D02*
X142103367Y-94843216D01*
X142143367Y-101581216D02*
X142143367Y-94799216D01*
X142183367Y-101625216D02*
X142183367Y-94755216D01*
X142223367Y-96950216D02*
X142223367Y-94712216D01*
X142223367Y-101668216D02*
X142223367Y-99430216D01*
X142263367Y-96950216D02*
X142263367Y-94670216D01*
X142263367Y-101710216D02*
X142263367Y-99430216D01*
X142303367Y-96950216D02*
X142303367Y-94629216D01*
X142303367Y-101751216D02*
X142303367Y-99430216D01*
X142343367Y-96950216D02*
X142343367Y-94589216D01*
X142343367Y-101791216D02*
X142343367Y-99430216D01*
X142383367Y-96950216D02*
X142383367Y-94550216D01*
X142383367Y-101830216D02*
X142383367Y-99430216D01*
X142423367Y-96950216D02*
X142423367Y-94512216D01*
X142423367Y-101868216D02*
X142423367Y-99430216D01*
X142463367Y-96950216D02*
X142463367Y-94474216D01*
X142463367Y-101906216D02*
X142463367Y-99430216D01*
X142503367Y-96950216D02*
X142503367Y-94438216D01*
X142503367Y-101942216D02*
X142503367Y-99430216D01*
X142543367Y-96950216D02*
X142543367Y-94402216D01*
X142543367Y-101978216D02*
X142543367Y-99430216D01*
X142583367Y-96950216D02*
X142583367Y-94367216D01*
X142583367Y-102013216D02*
X142583367Y-99430216D01*
X142623367Y-96950216D02*
X142623367Y-94332216D01*
X142623367Y-102048216D02*
X142623367Y-99430216D01*
X142663367Y-96950216D02*
X142663367Y-94299216D01*
X142663367Y-102081216D02*
X142663367Y-99430216D01*
X142703367Y-96950216D02*
X142703367Y-94266216D01*
X142703367Y-102114216D02*
X142703367Y-99430216D01*
X142743367Y-96950216D02*
X142743367Y-94233216D01*
X142743367Y-102147216D02*
X142743367Y-99430216D01*
X142783367Y-96950216D02*
X142783367Y-94202216D01*
X142783367Y-102178216D02*
X142783367Y-99430216D01*
X142823367Y-96950216D02*
X142823367Y-94170216D01*
X142823367Y-102210216D02*
X142823367Y-99430216D01*
X142863367Y-96950216D02*
X142863367Y-94140216D01*
X142863367Y-102240216D02*
X142863367Y-99430216D01*
X142903367Y-96950216D02*
X142903367Y-94110216D01*
X142903367Y-102270216D02*
X142903367Y-99430216D01*
X142943367Y-96950216D02*
X142943367Y-94081216D01*
X142943367Y-102299216D02*
X142943367Y-99430216D01*
X142983367Y-96950216D02*
X142983367Y-94052216D01*
X142983367Y-102328216D02*
X142983367Y-99430216D01*
X143023367Y-96950216D02*
X143023367Y-94024216D01*
X143023367Y-102356216D02*
X143023367Y-99430216D01*
X143063367Y-96950216D02*
X143063367Y-93997216D01*
X143063367Y-102383216D02*
X143063367Y-99430216D01*
X143103367Y-96950216D02*
X143103367Y-93970216D01*
X143103367Y-102410216D02*
X143103367Y-99430216D01*
X143143367Y-96950216D02*
X143143367Y-93943216D01*
X143143367Y-102437216D02*
X143143367Y-99430216D01*
X143183367Y-96950216D02*
X143183367Y-93918216D01*
X143183367Y-102462216D02*
X143183367Y-99430216D01*
X143223367Y-96950216D02*
X143223367Y-93892216D01*
X143223367Y-102488216D02*
X143223367Y-99430216D01*
X143263367Y-96950216D02*
X143263367Y-93867216D01*
X143263367Y-102513216D02*
X143263367Y-99430216D01*
X143303367Y-96950216D02*
X143303367Y-93843216D01*
X143303367Y-102537216D02*
X143303367Y-99430216D01*
X143343367Y-96950216D02*
X143343367Y-93819216D01*
X143343367Y-102561216D02*
X143343367Y-99430216D01*
X143383367Y-96950216D02*
X143383367Y-93796216D01*
X143383367Y-102584216D02*
X143383367Y-99430216D01*
X143423367Y-96950216D02*
X143423367Y-93773216D01*
X143423367Y-102607216D02*
X143423367Y-99430216D01*
X143463367Y-96950216D02*
X143463367Y-93751216D01*
X143463367Y-102629216D02*
X143463367Y-99430216D01*
X143503367Y-96950216D02*
X143503367Y-93729216D01*
X143503367Y-102651216D02*
X143503367Y-99430216D01*
X143543367Y-96950216D02*
X143543367Y-93707216D01*
X143543367Y-102673216D02*
X143543367Y-99430216D01*
X143583367Y-96950216D02*
X143583367Y-93686216D01*
X143583367Y-102694216D02*
X143583367Y-99430216D01*
X143623367Y-96950216D02*
X143623367Y-93666216D01*
X143623367Y-102714216D02*
X143623367Y-99430216D01*
X143663367Y-96950216D02*
X143663367Y-93646216D01*
X143663367Y-102734216D02*
X143663367Y-99430216D01*
X143703367Y-96950216D02*
X143703367Y-93626216D01*
X143703367Y-102754216D02*
X143703367Y-99430216D01*
X143743367Y-96950216D02*
X143743367Y-93607216D01*
X143743367Y-102773216D02*
X143743367Y-99430216D01*
X143783367Y-96950216D02*
X143783367Y-93588216D01*
X143783367Y-102792216D02*
X143783367Y-99430216D01*
X143823367Y-96950216D02*
X143823367Y-93570216D01*
X143823367Y-102810216D02*
X143823367Y-99430216D01*
X143863367Y-96950216D02*
X143863367Y-93552216D01*
X143863367Y-102828216D02*
X143863367Y-99430216D01*
X143903367Y-96950216D02*
X143903367Y-93534216D01*
X143903367Y-102846216D02*
X143903367Y-99430216D01*
X143943367Y-96950216D02*
X143943367Y-93517216D01*
X143943367Y-102863216D02*
X143943367Y-99430216D01*
X143983367Y-96950216D02*
X143983367Y-93500216D01*
X143983367Y-102880216D02*
X143983367Y-99430216D01*
X144023367Y-96950216D02*
X144023367Y-93484216D01*
X144023367Y-102896216D02*
X144023367Y-99430216D01*
X144063367Y-96950216D02*
X144063367Y-93468216D01*
X144063367Y-102912216D02*
X144063367Y-99430216D01*
X144103367Y-96950216D02*
X144103367Y-93452216D01*
X144103367Y-102928216D02*
X144103367Y-99430216D01*
X144143367Y-96950216D02*
X144143367Y-93437216D01*
X144143367Y-102943216D02*
X144143367Y-99430216D01*
X144183367Y-96950216D02*
X144183367Y-93422216D01*
X144183367Y-102958216D02*
X144183367Y-99430216D01*
X144223367Y-96950216D02*
X144223367Y-93408216D01*
X144223367Y-102972216D02*
X144223367Y-99430216D01*
X144263367Y-96950216D02*
X144263367Y-93393216D01*
X144263367Y-102987216D02*
X144263367Y-99430216D01*
X144303367Y-96950216D02*
X144303367Y-93380216D01*
X144303367Y-103000216D02*
X144303367Y-99430216D01*
X144343367Y-96950216D02*
X144343367Y-93366216D01*
X144343367Y-103014216D02*
X144343367Y-99430216D01*
X144383367Y-96950216D02*
X144383367Y-93353216D01*
X144383367Y-103027216D02*
X144383367Y-99430216D01*
X144423367Y-96950216D02*
X144423367Y-93341216D01*
X144423367Y-103039216D02*
X144423367Y-99430216D01*
X144463367Y-96950216D02*
X144463367Y-93329216D01*
X144463367Y-103051216D02*
X144463367Y-99430216D01*
X144503367Y-96950216D02*
X144503367Y-93317216D01*
X144503367Y-103063216D02*
X144503367Y-99430216D01*
X144543367Y-96950216D02*
X144543367Y-93305216D01*
X144543367Y-103075216D02*
X144543367Y-99430216D01*
X144583367Y-96950216D02*
X144583367Y-93294216D01*
X144583367Y-103086216D02*
X144583367Y-99430216D01*
X144623367Y-96950216D02*
X144623367Y-93283216D01*
X144623367Y-103097216D02*
X144623367Y-99430216D01*
X144663367Y-96950216D02*
X144663367Y-93273216D01*
X144663367Y-103107216D02*
X144663367Y-99430216D01*
X144703367Y-103118216D02*
X144703367Y-93262216D01*
X144743367Y-103127216D02*
X144743367Y-93253216D01*
X144783367Y-103137216D02*
X144783367Y-93243216D01*
X144823367Y-103146216D02*
X144823367Y-93234216D01*
X144863367Y-103155216D02*
X144863367Y-93225216D01*
X144903367Y-103163216D02*
X144903367Y-93217216D01*
X144943367Y-103171216D02*
X144943367Y-93209216D01*
X144983367Y-103179216D02*
X144983367Y-93201216D01*
X145023367Y-103187216D02*
X145023367Y-93193216D01*
X145063367Y-103194216D02*
X145063367Y-93186216D01*
X145103367Y-103201216D02*
X145103367Y-93179216D01*
X145143367Y-103207216D02*
X145143367Y-93173216D01*
X145183367Y-103213216D02*
X145183367Y-93167216D01*
X145223367Y-103219216D02*
X145223367Y-93161216D01*
X145263367Y-103225216D02*
X145263367Y-93155216D01*
X145303367Y-103230216D02*
X145303367Y-93150216D01*
X145343367Y-103235216D02*
X145343367Y-93145216D01*
X145383367Y-103239216D02*
X145383367Y-93141216D01*
X145423367Y-103244216D02*
X145423367Y-93136216D01*
X145463367Y-103247216D02*
X145463367Y-93133216D01*
X145503367Y-103251216D02*
X145503367Y-93129216D01*
X145543367Y-103254216D02*
X145543367Y-93126216D01*
X145583367Y-103257216D02*
X145583367Y-93123216D01*
X145623367Y-103260216D02*
X145623367Y-93120216D01*
X145663367Y-103262216D02*
X145663367Y-93118216D01*
X145703367Y-103264216D02*
X145703367Y-93116216D01*
X145743367Y-103266216D02*
X145743367Y-93114216D01*
X145783367Y-103267216D02*
X145783367Y-93113216D01*
X145823367Y-103269216D02*
X145823367Y-93111216D01*
X145863367Y-103269216D02*
X145863367Y-93111216D01*
X145903367Y-103270216D02*
X145903367Y-93110216D01*
X145943367Y-103270216D02*
X145943367Y-93110216D01*
X150923013Y-101565216D02*
X150923013Y-100565216D01*
X151423013Y-101065216D02*
X150423013Y-101065216D01*
X151063367Y-98190216D02*
G75*
G02*
X140823367Y-98190216I-5120000J0D01*
G01*
X140823367Y-98190216D02*
G75*
G02*
X151063367Y-98190216I5120000J0D01*
G01*
%TO.C,D1*%
X148590680Y-91253898D02*
X148590680Y-88163898D01*
X143040680Y-89708898D02*
G75*
G02*
X148590680Y-88164068I2990000J0D01*
G01*
X148590680Y-91253728D02*
G75*
G02*
X143040680Y-89708898I-2560000J1544830D01*
G01*
X148530680Y-89708898D02*
G75*
G02*
X143530680Y-89708898I-2500000J0D01*
G01*
X143530680Y-89708898D02*
G75*
G02*
X148530680Y-89708898I2500000J0D01*
G01*
%TO.C,C3*%
X145073367Y-108734700D02*
X149313367Y-108734700D01*
X145073367Y-109534700D02*
X145073367Y-108734700D01*
X145073367Y-111474700D02*
X145073367Y-110674700D01*
X149313367Y-108734700D02*
X149313367Y-109534700D01*
X149313367Y-110674700D02*
X149313367Y-111474700D01*
X149313367Y-111474700D02*
X145073367Y-111474700D01*
D12*
%TO.C,F2*%
X154900000Y-58900000D02*
X158000000Y-58900000D01*
X154900000Y-81100000D02*
X154900000Y-58900000D01*
X158000000Y-81100000D02*
X154900000Y-81100000D01*
X161000000Y-58900000D02*
X164100000Y-58900000D01*
X164100000Y-58900000D02*
X164100000Y-81100000D01*
X164100000Y-81100000D02*
X161000000Y-81100000D01*
%TO.C,F3*%
X166900000Y-58900000D02*
X170000000Y-58900000D01*
X166900000Y-81100000D02*
X166900000Y-58900000D01*
X170000000Y-81100000D02*
X166900000Y-81100000D01*
X173000000Y-58900000D02*
X176100000Y-58900000D01*
X176100000Y-58900000D02*
X176100000Y-81100000D01*
X176100000Y-81100000D02*
X173000000Y-81100000D01*
D11*
%TO.C,C5*%
X151508019Y-110330747D02*
X158948019Y-110330747D01*
X151508019Y-115070747D02*
X151508019Y-110330747D01*
X158948019Y-110330747D02*
X158948019Y-115070747D01*
X158948019Y-115070747D02*
X151508019Y-115070747D01*
%TO.C,FB2*%
X153855490Y-91553258D02*
X151415490Y-91553258D01*
X151415490Y-97093258D01*
X153855490Y-97093258D01*
X153855490Y-91553258D01*
D12*
%TO.C,F1*%
X142900000Y-58900000D02*
X146000000Y-58900000D01*
X142900000Y-81100000D02*
X142900000Y-58900000D01*
X146000000Y-81100000D02*
X142900000Y-81100000D01*
X149000000Y-58900000D02*
X152100000Y-58900000D01*
X152100000Y-58900000D02*
X152100000Y-81100000D01*
X152100000Y-81100000D02*
X149000000Y-81100000D01*
D11*
%TO.C,R1*%
X147647689Y-84417534D02*
X143807689Y-84417534D01*
X147647689Y-86257534D02*
X143807689Y-86257534D01*
%TO.C,J2*%
X151650000Y-50250000D02*
X151650000Y-51500000D01*
X151940000Y-50540000D02*
X151940000Y-56510000D01*
X151940000Y-56510000D02*
X167060000Y-56510000D01*
X151950000Y-50550000D02*
X151950000Y-51300000D01*
X151950000Y-51300000D02*
X153750000Y-51300000D01*
X151950000Y-52800000D02*
X152700000Y-52800000D01*
X152700000Y-52800000D02*
X152700000Y-55750000D01*
X152700000Y-55750000D02*
X159500000Y-55750000D01*
X152900000Y-50250000D02*
X151650000Y-50250000D01*
X153750000Y-50550000D02*
X151950000Y-50550000D01*
X153750000Y-51300000D02*
X153750000Y-50550000D01*
X155250000Y-50550000D02*
X155250000Y-51300000D01*
X155250000Y-51300000D02*
X163750000Y-51300000D01*
X163750000Y-50550000D02*
X155250000Y-50550000D01*
X163750000Y-51300000D02*
X163750000Y-50550000D01*
X165250000Y-50550000D02*
X165250000Y-51300000D01*
X165250000Y-51300000D02*
X167050000Y-51300000D01*
X166300000Y-52800000D02*
X166300000Y-55750000D01*
X166300000Y-55750000D02*
X159500000Y-55750000D01*
X167050000Y-50550000D02*
X165250000Y-50550000D01*
X167050000Y-51300000D02*
X167050000Y-50550000D01*
X167050000Y-52800000D02*
X166300000Y-52800000D01*
X167060000Y-50540000D02*
X151940000Y-50540000D01*
X167060000Y-56510000D02*
X167060000Y-50540000D01*
%TO.C,D2*%
X159812440Y-97800840D02*
X159812440Y-94710840D01*
X154262440Y-96255840D02*
G75*
G02*
X159812440Y-94711010I2990000J0D01*
G01*
X159812440Y-97800670D02*
G75*
G02*
X154262440Y-96255840I-2560000J1544830D01*
G01*
X159752440Y-96255840D02*
G75*
G02*
X154752440Y-96255840I-2500000J0D01*
G01*
X154752440Y-96255840D02*
G75*
G02*
X159752440Y-96255840I2500000J0D01*
G01*
%TO.C,C6*%
X159296148Y-111830747D02*
X160096148Y-111830747D01*
X159296148Y-116070747D02*
X159296148Y-111830747D01*
X160096148Y-116070747D02*
X159296148Y-116070747D01*
X161236148Y-111830747D02*
X162036148Y-111830747D01*
X162036148Y-111830747D02*
X162036148Y-116070747D01*
X162036148Y-116070747D02*
X161236148Y-116070747D01*
%TO.C,R3*%
X162412773Y-117160747D02*
X162412773Y-113320747D01*
X164252773Y-117160747D02*
X164252773Y-113320747D01*
%TO.C,D3*%
X173295984Y-91240378D02*
X173295984Y-88150378D01*
X167745984Y-89695378D02*
G75*
G02*
X173295984Y-88150548I2990000J0D01*
G01*
X173295984Y-91240208D02*
G75*
G02*
X167745984Y-89695378I-2560000J1544830D01*
G01*
X173235984Y-89695378D02*
G75*
G02*
X168235984Y-89695378I-2500000J0D01*
G01*
X168235984Y-89695378D02*
G75*
G02*
X173235984Y-89695378I2500000J0D01*
G01*
%TO.C,FB3*%
X163154694Y-98279452D02*
X160714694Y-98279452D01*
X160714694Y-103819452D01*
X163154694Y-103819452D01*
X163154694Y-98279452D01*
%TO.C,C8*%
X165359410Y-103666280D02*
X172799410Y-103666280D01*
X165359410Y-108406280D02*
X165359410Y-103666280D01*
X172799410Y-103666280D02*
X172799410Y-108406280D01*
X172799410Y-108406280D02*
X165359410Y-108406280D01*
%TD*%
%LPC*%
D13*
%TO.C,REF\u002A\u002A*%
X143000000Y-121000000D03*
%TD*%
D14*
%TO.C,C2*%
X143443367Y-106018641D03*
X148443367Y-106018641D03*
%TD*%
D15*
%TO.C,R6*%
X167455790Y-85371938D03*
X172535790Y-85371938D03*
%TD*%
%TO.C,R4*%
X166499410Y-112738751D03*
X171579410Y-112738751D03*
%TD*%
D13*
%TO.C,REF\u002A\u002A*%
X176000000Y-51000000D03*
%TD*%
D16*
%TO.C,C4*%
X157709104Y-104858699D03*
D13*
X152709104Y-104858699D03*
%TD*%
D17*
%TO.C,J1*%
X148409529Y-118328189D03*
D18*
X150909529Y-118328189D03*
X153409529Y-118328189D03*
X155909529Y-118328189D03*
%TD*%
D19*
%TO.C,C7*%
X166632323Y-98200085D03*
D13*
X171632323Y-98200085D03*
%TD*%
D14*
%TO.C,C9*%
X169079410Y-110107884D03*
X171579410Y-110107884D03*
%TD*%
D15*
%TO.C,R5*%
X155879788Y-86875059D03*
X155879788Y-91955059D03*
%TD*%
D14*
%TO.C,FB4*%
X175798913Y-90580085D03*
X175798913Y-98200085D03*
%TD*%
D15*
%TO.C,R2*%
X143363367Y-112732182D03*
X148443367Y-112732182D03*
%TD*%
D16*
%TO.C,C1*%
X148443367Y-98190216D03*
D13*
X143443367Y-98190216D03*
%TD*%
D20*
%TO.C,D1*%
X147300680Y-89708898D03*
D21*
X144760680Y-89708898D03*
%TD*%
D14*
%TO.C,C3*%
X145943367Y-110104700D03*
X148443367Y-110104700D03*
%TD*%
D22*
%TO.C,F2*%
X159500000Y-58700000D03*
X159500000Y-81300000D03*
%TD*%
%TO.C,F3*%
X171500000Y-58700000D03*
X171500000Y-81300000D03*
%TD*%
D14*
%TO.C,C5*%
X152728019Y-112700747D03*
X157728019Y-112700747D03*
%TD*%
D13*
%TO.C,REF\u002A\u002A*%
X176000000Y-121000000D03*
%TD*%
D14*
%TO.C,FB2*%
X152635490Y-90513258D03*
X152635490Y-98133258D03*
%TD*%
D22*
%TO.C,F1*%
X147500000Y-58700000D03*
X147500000Y-81300000D03*
%TD*%
D15*
%TO.C,R1*%
X148267689Y-85337534D03*
X143187689Y-85337534D03*
%TD*%
D17*
%TO.C,J2*%
X154500000Y-53000000D03*
D18*
X157000000Y-53000000D03*
X159500000Y-53000000D03*
X162000000Y-53000000D03*
X164500000Y-53000000D03*
%TD*%
D20*
%TO.C,D2*%
X158522440Y-96255840D03*
D21*
X155982440Y-96255840D03*
%TD*%
D14*
%TO.C,C6*%
X160666148Y-115200747D03*
X160666148Y-112700747D03*
%TD*%
D15*
%TO.C,R3*%
X163332773Y-117780747D03*
X163332773Y-112700747D03*
%TD*%
D20*
%TO.C,D3*%
X172005984Y-89695378D03*
D21*
X169465984Y-89695378D03*
%TD*%
D14*
%TO.C,FB3*%
X161934694Y-97239452D03*
X161934694Y-104859452D03*
%TD*%
D13*
%TO.C,REF\u002A\u002A*%
X143000000Y-51000000D03*
%TD*%
D14*
%TO.C,C8*%
X166579410Y-106036280D03*
X171579410Y-106036280D03*
%TD*%
%LPD*%
M02*
